<mxfile host="Electron" agent="Mozilla/5.0 (Windows NT 10.0; Win64; x64) AppleWebKit/537.36 (KHTML, like Gecko) draw.io/26.2.2 Chrome/134.0.6998.178 Electron/35.1.2 Safari/537.36" version="26.2.2">
  <diagram name="Page-1" id="CijXID6h7_8OOGvyLqrY">
    <mxGraphModel dx="6333" dy="2963" grid="1" gridSize="10" guides="1" tooltips="1" connect="1" arrows="1" fold="1" page="1" pageScale="1" pageWidth="850" pageHeight="1100" background="#FFCE9F" math="0" shadow="0">
      <root>
        <mxCell id="0" />
        <mxCell id="1" parent="0" />
        <mxCell id="vqxXQO5X_f1XpehPMIfq-102" value="Package3" style="shape=folder;fontStyle=1;tabWidth=110;tabHeight=30;tabPosition=left;html=1;boundedLbl=1;labelInHeader=1;container=1;collapsible=0;whiteSpace=wrap;opacity=50;" parent="1" vertex="1">
          <mxGeometry x="-640" y="20" width="1450" height="840" as="geometry" />
        </mxCell>
        <mxCell id="vqxXQO5X_f1XpehPMIfq-103" value="" style="html=1;strokeColor=none;resizeWidth=1;resizeHeight=1;fillColor=none;part=1;connectable=0;allowArrows=0;deletable=0;whiteSpace=wrap;" parent="vqxXQO5X_f1XpehPMIfq-102" vertex="1">
          <mxGeometry width="1450" height="588" relative="1" as="geometry">
            <mxPoint y="30" as="offset" />
          </mxGeometry>
        </mxCell>
        <mxCell id="ViaeIdblsGb_LhoVTpIe-24" value="Wallet" style="swimlane;fontStyle=1;align=center;verticalAlign=top;childLayout=stackLayout;horizontal=1;startSize=26;horizontalStack=0;resizeParent=1;resizeParentMax=0;resizeLast=0;collapsible=1;marginBottom=0;whiteSpace=wrap;html=1;fontColor=#ffffff;fillColor=#60a917;strokeColor=#2D7600;" parent="vqxXQO5X_f1XpehPMIfq-102" vertex="1">
          <mxGeometry x="340" y="82" width="250" height="242" as="geometry">
            <mxRectangle x="15" y="120" width="70" height="30" as="alternateBounds" />
          </mxGeometry>
        </mxCell>
        <mxCell id="ViaeIdblsGb_LhoVTpIe-25" value="-balance: double" style="text;strokeColor=none;fillColor=none;align=left;verticalAlign=top;spacingLeft=4;spacingRight=4;overflow=hidden;rotatable=0;points=[[0,0.5],[1,0.5]];portConstraint=eastwest;whiteSpace=wrap;html=1;fontColor=#000000;" parent="ViaeIdblsGb_LhoVTpIe-24" vertex="1">
          <mxGeometry y="26" width="250" height="26" as="geometry" />
        </mxCell>
        <mxCell id="ViaeIdblsGb_LhoVTpIe-26" value="-WALLET_NUMBER: int" style="text;strokeColor=none;fillColor=none;align=left;verticalAlign=top;spacingLeft=4;spacingRight=4;overflow=hidden;rotatable=0;points=[[0,0.5],[1,0.5]];portConstraint=eastwest;whiteSpace=wrap;html=1;fontColor=#000000;" parent="ViaeIdblsGb_LhoVTpIe-24" vertex="1">
          <mxGeometry y="52" width="250" height="26" as="geometry" />
        </mxCell>
        <mxCell id="ViaeIdblsGb_LhoVTpIe-27" value="" style="line;strokeWidth=1;fillColor=none;align=left;verticalAlign=middle;spacingTop=-1;spacingLeft=3;spacingRight=3;rotatable=0;labelPosition=right;points=[];portConstraint=eastwest;strokeColor=inherit;fontColor=#000000;" parent="ViaeIdblsGb_LhoVTpIe-24" vertex="1">
          <mxGeometry y="78" width="250" height="8" as="geometry" />
        </mxCell>
        <mxCell id="ViaeIdblsGb_LhoVTpIe-28" value="+Wallet(double,int)" style="text;strokeColor=none;fillColor=none;align=left;verticalAlign=top;spacingLeft=4;spacingRight=4;overflow=hidden;rotatable=0;points=[[0,0.5],[1,0.5]];portConstraint=eastwest;whiteSpace=wrap;html=1;fontColor=#000000;" parent="ViaeIdblsGb_LhoVTpIe-24" vertex="1">
          <mxGeometry y="86" width="250" height="26" as="geometry" />
        </mxCell>
        <mxCell id="ViaeIdblsGb_LhoVTpIe-29" value="+&lt;u&gt;CreateWallet(String,double): void&lt;/u&gt;" style="text;strokeColor=none;fillColor=none;align=left;verticalAlign=top;spacingLeft=4;spacingRight=4;overflow=hidden;rotatable=0;points=[[0,0.5],[1,0.5]];portConstraint=eastwest;whiteSpace=wrap;html=1;fontColor=#000000;" parent="ViaeIdblsGb_LhoVTpIe-24" vertex="1">
          <mxGeometry y="112" width="250" height="26" as="geometry" />
        </mxCell>
        <mxCell id="ViaeIdblsGb_LhoVTpIe-30" value="+&lt;u&gt;FindWallet(ArrayList&amp;lt;Wallet&amp;gt;,int): Wallet&lt;/u&gt;" style="text;strokeColor=none;fillColor=none;align=left;verticalAlign=top;spacingLeft=4;spacingRight=4;overflow=hidden;rotatable=0;points=[[0,0.5],[1,0.5]];portConstraint=eastwest;whiteSpace=wrap;html=1;fontColor=#000000;" parent="ViaeIdblsGb_LhoVTpIe-24" vertex="1">
          <mxGeometry y="138" width="250" height="26" as="geometry" />
        </mxCell>
        <mxCell id="ViaeIdblsGb_LhoVTpIe-31" value="+EditBalance(double): void" style="text;strokeColor=none;fillColor=none;align=left;verticalAlign=top;spacingLeft=4;spacingRight=4;overflow=hidden;rotatable=0;points=[[0,0.5],[1,0.5]];portConstraint=eastwest;whiteSpace=wrap;html=1;fontColor=#000000;" parent="ViaeIdblsGb_LhoVTpIe-24" vertex="1">
          <mxGeometry y="164" width="250" height="26" as="geometry" />
        </mxCell>
        <mxCell id="ViaeIdblsGb_LhoVTpIe-32" value="+GetBalance(): double" style="text;strokeColor=none;fillColor=none;align=left;verticalAlign=top;spacingLeft=4;spacingRight=4;overflow=hidden;rotatable=0;points=[[0,0.5],[1,0.5]];portConstraint=eastwest;whiteSpace=wrap;html=1;fontColor=#000000;" parent="ViaeIdblsGb_LhoVTpIe-24" vertex="1">
          <mxGeometry y="190" width="250" height="26" as="geometry" />
        </mxCell>
        <mxCell id="ViaeIdblsGb_LhoVTpIe-33" value="+toString(): String" style="text;strokeColor=none;fillColor=none;align=left;verticalAlign=top;spacingLeft=4;spacingRight=4;overflow=hidden;rotatable=0;points=[[0,0.5],[1,0.5]];portConstraint=eastwest;whiteSpace=wrap;html=1;fontColor=#000000;" parent="ViaeIdblsGb_LhoVTpIe-24" vertex="1">
          <mxGeometry y="216" width="250" height="26" as="geometry" />
        </mxCell>
        <mxCell id="ViaeIdblsGb_LhoVTpIe-1" value="&amp;lt;&amp;lt;enum&amp;gt;&amp;gt;&lt;div&gt;Gender&lt;/div&gt;" style="swimlane;fontStyle=1;align=center;verticalAlign=top;childLayout=stackLayout;horizontal=1;startSize=40;horizontalStack=0;resizeParent=1;resizeParentMax=0;resizeLast=0;collapsible=1;marginBottom=0;whiteSpace=wrap;html=1;fontColor=#ffffff;fillColor=#60a917;strokeColor=#2D7600;" parent="vqxXQO5X_f1XpehPMIfq-102" vertex="1">
          <mxGeometry x="660" y="60" width="160" height="214" as="geometry">
            <mxRectangle x="110" y="40" width="140" height="30" as="alternateBounds" />
          </mxGeometry>
        </mxCell>
        <mxCell id="ViaeIdblsGb_LhoVTpIe-2" value="Male" style="text;strokeColor=none;fillColor=none;align=left;verticalAlign=top;spacingLeft=4;spacingRight=4;overflow=hidden;rotatable=0;points=[[0,0.5],[1,0.5]];portConstraint=eastwest;whiteSpace=wrap;html=1;fontColor=#000000;" parent="ViaeIdblsGb_LhoVTpIe-1" vertex="1">
          <mxGeometry y="40" width="160" height="26" as="geometry" />
        </mxCell>
        <mxCell id="ViaeIdblsGb_LhoVTpIe-3" value="Female" style="text;strokeColor=none;fillColor=none;align=left;verticalAlign=top;spacingLeft=4;spacingRight=4;overflow=hidden;rotatable=0;points=[[0,0.5],[1,0.5]];portConstraint=eastwest;whiteSpace=wrap;html=1;fontColor=#000000;" parent="ViaeIdblsGb_LhoVTpIe-1" vertex="1">
          <mxGeometry y="66" width="160" height="26" as="geometry" />
        </mxCell>
        <mxCell id="ViaeIdblsGb_LhoVTpIe-4" value="Engineer" style="text;strokeColor=none;fillColor=none;align=left;verticalAlign=top;spacingLeft=4;spacingRight=4;overflow=hidden;rotatable=0;points=[[0,0.5],[1,0.5]];portConstraint=eastwest;whiteSpace=wrap;html=1;fontColor=#000000;" parent="ViaeIdblsGb_LhoVTpIe-1" vertex="1">
          <mxGeometry y="92" width="160" height="26" as="geometry" />
        </mxCell>
        <mxCell id="ViaeIdblsGb_LhoVTpIe-5" value="" style="line;strokeWidth=1;fillColor=none;align=left;verticalAlign=middle;spacingTop=-1;spacingLeft=3;spacingRight=3;rotatable=0;labelPosition=right;points=[];portConstraint=eastwest;strokeColor=inherit;fontColor=#000000;" parent="ViaeIdblsGb_LhoVTpIe-1" vertex="1">
          <mxGeometry y="118" width="160" height="8" as="geometry" />
        </mxCell>
        <mxCell id="ViaeIdblsGb_LhoVTpIe-6" value="+Gender: String" style="text;strokeColor=none;fillColor=none;align=left;verticalAlign=top;spacingLeft=4;spacingRight=4;overflow=hidden;rotatable=0;points=[[0,0.5],[1,0.5]];portConstraint=eastwest;whiteSpace=wrap;html=1;fontColor=#000000;" parent="ViaeIdblsGb_LhoVTpIe-1" vertex="1">
          <mxGeometry y="126" width="160" height="26" as="geometry" />
        </mxCell>
        <mxCell id="ViaeIdblsGb_LhoVTpIe-7" value="" style="line;strokeWidth=1;fillColor=none;align=left;verticalAlign=middle;spacingTop=-1;spacingLeft=3;spacingRight=3;rotatable=0;labelPosition=right;points=[];portConstraint=eastwest;strokeColor=inherit;fontColor=#000000;" parent="ViaeIdblsGb_LhoVTpIe-1" vertex="1">
          <mxGeometry y="152" width="160" height="10" as="geometry" />
        </mxCell>
        <mxCell id="ViaeIdblsGb_LhoVTpIe-8" value="+Gender(String)" style="text;strokeColor=none;fillColor=none;align=left;verticalAlign=top;spacingLeft=4;spacingRight=4;overflow=hidden;rotatable=0;points=[[0,0.5],[1,0.5]];portConstraint=eastwest;whiteSpace=wrap;html=1;fontColor=#000000;" parent="ViaeIdblsGb_LhoVTpIe-1" vertex="1">
          <mxGeometry y="162" width="160" height="26" as="geometry" />
        </mxCell>
        <mxCell id="ViaeIdblsGb_LhoVTpIe-9" value="+toString(): String" style="text;strokeColor=none;fillColor=none;align=left;verticalAlign=top;spacingLeft=4;spacingRight=4;overflow=hidden;rotatable=0;points=[[0,0.5],[1,0.5]];portConstraint=eastwest;whiteSpace=wrap;html=1;fontColor=#000000;" parent="ViaeIdblsGb_LhoVTpIe-1" vertex="1">
          <mxGeometry y="188" width="160" height="26" as="geometry" />
        </mxCell>
        <mxCell id="EUOa7AyO2jyz6yHNA7Qs-51" value="User" style="swimlane;fontStyle=1;align=center;verticalAlign=top;childLayout=stackLayout;horizontal=1;startSize=26;horizontalStack=0;resizeParent=1;resizeParentMax=0;resizeLast=0;collapsible=1;marginBottom=0;whiteSpace=wrap;html=1;fontColor=#ffffff;fillColor=#60a917;strokeColor=#2D7600;" parent="vqxXQO5X_f1XpehPMIfq-102" vertex="1">
          <mxGeometry x="960" y="60" width="280" height="268" as="geometry">
            <mxRectangle x="800" y="280" width="70" height="30" as="alternateBounds" />
          </mxGeometry>
        </mxCell>
        <mxCell id="EUOa7AyO2jyz6yHNA7Qs-52" value="#username: String" style="text;strokeColor=none;fillColor=none;align=left;verticalAlign=top;spacingLeft=4;spacingRight=4;overflow=hidden;rotatable=0;points=[[0,0.5],[1,0.5]];portConstraint=eastwest;whiteSpace=wrap;html=1;fontColor=#000000;" parent="EUOa7AyO2jyz6yHNA7Qs-51" vertex="1">
          <mxGeometry y="26" width="280" height="26" as="geometry" />
        </mxCell>
        <mxCell id="JJXJcLjme7lauxdf09mU-3" value="#email: String" style="text;strokeColor=none;fillColor=none;align=left;verticalAlign=top;spacingLeft=4;spacingRight=4;overflow=hidden;rotatable=0;points=[[0,0.5],[1,0.5]];portConstraint=eastwest;whiteSpace=wrap;html=1;fontColor=#000000;" parent="EUOa7AyO2jyz6yHNA7Qs-51" vertex="1">
          <mxGeometry y="52" width="280" height="26" as="geometry" />
        </mxCell>
        <mxCell id="JJXJcLjme7lauxdf09mU-4" value="#password: String" style="text;strokeColor=none;fillColor=none;align=left;verticalAlign=top;spacingLeft=4;spacingRight=4;overflow=hidden;rotatable=0;points=[[0,0.5],[1,0.5]];portConstraint=eastwest;whiteSpace=wrap;html=1;fontColor=#000000;" parent="EUOa7AyO2jyz6yHNA7Qs-51" vertex="1">
          <mxGeometry y="78" width="280" height="26" as="geometry" />
        </mxCell>
        <mxCell id="JJXJcLjme7lauxdf09mU-5" value="#dob: MyDate" style="text;strokeColor=none;fillColor=none;align=left;verticalAlign=top;spacingLeft=4;spacingRight=4;overflow=hidden;rotatable=0;points=[[0,0.5],[1,0.5]];portConstraint=eastwest;whiteSpace=wrap;html=1;fontColor=#000000;" parent="EUOa7AyO2jyz6yHNA7Qs-51" vertex="1">
          <mxGeometry y="104" width="280" height="26" as="geometry" />
        </mxCell>
        <mxCell id="JJXJcLjme7lauxdf09mU-6" value="#gender: Gender" style="text;strokeColor=none;fillColor=none;align=left;verticalAlign=top;spacingLeft=4;spacingRight=4;overflow=hidden;rotatable=0;points=[[0,0.5],[1,0.5]];portConstraint=eastwest;whiteSpace=wrap;html=1;fontColor=#000000;" parent="EUOa7AyO2jyz6yHNA7Qs-51" vertex="1">
          <mxGeometry y="130" width="280" height="26" as="geometry" />
        </mxCell>
        <mxCell id="EUOa7AyO2jyz6yHNA7Qs-53" value="" style="line;strokeWidth=1;fillColor=none;align=left;verticalAlign=middle;spacingTop=-1;spacingLeft=3;spacingRight=3;rotatable=0;labelPosition=right;points=[];portConstraint=eastwest;strokeColor=inherit;fontColor=#000000;" parent="EUOa7AyO2jyz6yHNA7Qs-51" vertex="1">
          <mxGeometry y="156" width="280" height="8" as="geometry" />
        </mxCell>
        <mxCell id="EUOa7AyO2jyz6yHNA7Qs-54" value="#User(String, String, String, MyDate, Gender)" style="text;strokeColor=none;fillColor=none;align=left;verticalAlign=top;spacingLeft=4;spacingRight=4;overflow=hidden;rotatable=0;points=[[0,0.5],[1,0.5]];portConstraint=eastwest;whiteSpace=wrap;html=1;fontColor=#000000;" parent="EUOa7AyO2jyz6yHNA7Qs-51" vertex="1">
          <mxGeometry y="164" width="280" height="26" as="geometry" />
        </mxCell>
        <mxCell id="JJXJcLjme7lauxdf09mU-8" value="+&lt;u&gt;Login(String, String): User&lt;/u&gt;" style="text;strokeColor=none;fillColor=none;align=left;verticalAlign=top;spacingLeft=4;spacingRight=4;overflow=hidden;rotatable=0;points=[[0,0.5],[1,0.5]];portConstraint=eastwest;whiteSpace=wrap;html=1;fontColor=#000000;" parent="EUOa7AyO2jyz6yHNA7Qs-51" vertex="1">
          <mxGeometry y="190" width="280" height="26" as="geometry" />
        </mxCell>
        <mxCell id="JJXJcLjme7lauxdf09mU-9" value="+&lt;u&gt;GetUsers(): ArrayList&amp;lt;User&amp;gt;&lt;/u&gt;" style="text;strokeColor=none;fillColor=none;align=left;verticalAlign=top;spacingLeft=4;spacingRight=4;overflow=hidden;rotatable=0;points=[[0,0.5],[1,0.5]];portConstraint=eastwest;whiteSpace=wrap;html=1;fontColor=#000000;" parent="EUOa7AyO2jyz6yHNA7Qs-51" vertex="1">
          <mxGeometry y="216" width="280" height="26" as="geometry" />
        </mxCell>
        <mxCell id="JJXJcLjme7lauxdf09mU-10" value="+GetUsername(): String" style="text;strokeColor=none;fillColor=none;align=left;verticalAlign=top;spacingLeft=4;spacingRight=4;overflow=hidden;rotatable=0;points=[[0,0.5],[1,0.5]];portConstraint=eastwest;whiteSpace=wrap;html=1;fontColor=#000000;" parent="EUOa7AyO2jyz6yHNA7Qs-51" vertex="1">
          <mxGeometry y="242" width="280" height="26" as="geometry" />
        </mxCell>
        <mxCell id="vqxXQO5X_f1XpehPMIfq-17" style="edgeStyle=orthogonalEdgeStyle;rounded=0;orthogonalLoop=1;jettySize=auto;html=1;entryX=0;entryY=0.5;entryDx=0;entryDy=0;endSize=25;endArrow=diamondThin;endFill=0;fontColor=#000000;" parent="vqxXQO5X_f1XpehPMIfq-102" source="ViaeIdblsGb_LhoVTpIe-1" target="JJXJcLjme7lauxdf09mU-10" edge="1">
          <mxGeometry relative="1" as="geometry" />
        </mxCell>
        <mxCell id="EUOa7AyO2jyz6yHNA7Qs-34" value="Attendee" style="swimlane;fontStyle=1;align=center;verticalAlign=top;childLayout=stackLayout;horizontal=1;startSize=26;horizontalStack=0;resizeParent=1;resizeParentMax=0;resizeLast=0;collapsible=1;marginBottom=0;whiteSpace=wrap;html=1;fontColor=#ffffff;fillColor=#60a917;strokeColor=#2D7600;" parent="vqxXQO5X_f1XpehPMIfq-102" vertex="1">
          <mxGeometry x="580" y="510" width="560" height="320" as="geometry">
            <mxRectangle x="780" y="390" width="90" height="30" as="alternateBounds" />
          </mxGeometry>
        </mxCell>
        <mxCell id="EUOa7AyO2jyz6yHNA7Qs-35" value="-interests: ArrayList&amp;lt;Category&amp;gt;" style="text;strokeColor=none;fillColor=none;align=left;verticalAlign=top;spacingLeft=4;spacingRight=4;overflow=hidden;rotatable=0;points=[[0,0.5],[1,0.5]];portConstraint=eastwest;whiteSpace=wrap;html=1;fontColor=#000000;" parent="EUOa7AyO2jyz6yHNA7Qs-34" vertex="1">
          <mxGeometry y="26" width="560" height="26" as="geometry" />
        </mxCell>
        <mxCell id="JJXJcLjme7lauxdf09mU-13" value="-wallet: Wallet" style="text;strokeColor=none;fillColor=none;align=left;verticalAlign=top;spacingLeft=4;spacingRight=4;overflow=hidden;rotatable=0;points=[[0,0.5],[1,0.5]];portConstraint=eastwest;whiteSpace=wrap;html=1;fontColor=#000000;" parent="EUOa7AyO2jyz6yHNA7Qs-34" vertex="1">
          <mxGeometry y="52" width="560" height="26" as="geometry" />
        </mxCell>
        <mxCell id="JJXJcLjme7lauxdf09mU-14" value="-tickets: Map&amp;lt;Integer, Integer&amp;gt;" style="text;strokeColor=none;fillColor=none;align=left;verticalAlign=top;spacingLeft=4;spacingRight=4;overflow=hidden;rotatable=0;points=[[0,0.5],[1,0.5]];portConstraint=eastwest;whiteSpace=wrap;html=1;fontColor=#000000;" parent="EUOa7AyO2jyz6yHNA7Qs-34" vertex="1">
          <mxGeometry y="78" width="560" height="26" as="geometry" />
        </mxCell>
        <mxCell id="EUOa7AyO2jyz6yHNA7Qs-36" value="" style="line;strokeWidth=1;fillColor=none;align=left;verticalAlign=middle;spacingTop=-1;spacingLeft=3;spacingRight=3;rotatable=0;labelPosition=right;points=[];portConstraint=eastwest;strokeColor=inherit;fontColor=#000000;" parent="EUOa7AyO2jyz6yHNA7Qs-34" vertex="1">
          <mxGeometry y="104" width="560" height="8" as="geometry" />
        </mxCell>
        <mxCell id="EUOa7AyO2jyz6yHNA7Qs-37" value="+Attendee(String, String, String, MyDate, Gender, ArrayList&amp;lt;Category&amp;gt;, Wallet, Map&amp;lt;Integer, Integer&amp;gt;)" style="text;strokeColor=none;fillColor=none;align=left;verticalAlign=top;spacingLeft=4;spacingRight=4;overflow=hidden;rotatable=0;points=[[0,0.5],[1,0.5]];portConstraint=eastwest;whiteSpace=wrap;html=1;fontColor=#000000;" parent="EUOa7AyO2jyz6yHNA7Qs-34" vertex="1">
          <mxGeometry y="112" width="560" height="26" as="geometry" />
        </mxCell>
        <mxCell id="JJXJcLjme7lauxdf09mU-15" value="+&lt;u&gt;RegisterAttendee(String, String, String, MyDate, Gender, ArrayList&amp;lt;Category&amp;gt;, double): void&lt;/u&gt;" style="text;strokeColor=none;fillColor=none;align=left;verticalAlign=top;spacingLeft=4;spacingRight=4;overflow=hidden;rotatable=0;points=[[0,0.5],[1,0.5]];portConstraint=eastwest;whiteSpace=wrap;html=1;fontColor=#000000;" parent="EUOa7AyO2jyz6yHNA7Qs-34" vertex="1">
          <mxGeometry y="138" width="560" height="26" as="geometry" />
        </mxCell>
        <mxCell id="JJXJcLjme7lauxdf09mU-16" value="+PurchaseEvent(Event, int): void" style="text;strokeColor=none;fillColor=none;align=left;verticalAlign=top;spacingLeft=4;spacingRight=4;overflow=hidden;rotatable=0;points=[[0,0.5],[1,0.5]];portConstraint=eastwest;whiteSpace=wrap;html=1;fontColor=#000000;" parent="EUOa7AyO2jyz6yHNA7Qs-34" vertex="1">
          <mxGeometry y="164" width="560" height="26" as="geometry" />
        </mxCell>
        <mxCell id="JJXJcLjme7lauxdf09mU-17" value="+RefundTicket(Event, int): void" style="text;strokeColor=none;fillColor=none;align=left;verticalAlign=top;spacingLeft=4;spacingRight=4;overflow=hidden;rotatable=0;points=[[0,0.5],[1,0.5]];portConstraint=eastwest;whiteSpace=wrap;html=1;fontColor=#000000;" parent="EUOa7AyO2jyz6yHNA7Qs-34" vertex="1">
          <mxGeometry y="190" width="560" height="26" as="geometry" />
        </mxCell>
        <mxCell id="JJXJcLjme7lauxdf09mU-18" value="+GetWallet(): Wallet" style="text;strokeColor=none;fillColor=none;align=left;verticalAlign=top;spacingLeft=4;spacingRight=4;overflow=hidden;rotatable=0;points=[[0,0.5],[1,0.5]];portConstraint=eastwest;whiteSpace=wrap;html=1;fontColor=#000000;" parent="EUOa7AyO2jyz6yHNA7Qs-34" vertex="1">
          <mxGeometry y="216" width="560" height="26" as="geometry" />
        </mxCell>
        <mxCell id="JJXJcLjme7lauxdf09mU-19" value="+GetInterests(): ArrayList&amp;lt;Category&amp;gt;" style="text;strokeColor=none;fillColor=none;align=left;verticalAlign=top;spacingLeft=4;spacingRight=4;overflow=hidden;rotatable=0;points=[[0,0.5],[1,0.5]];portConstraint=eastwest;whiteSpace=wrap;html=1;fontColor=#000000;" parent="EUOa7AyO2jyz6yHNA7Qs-34" vertex="1">
          <mxGeometry y="242" width="560" height="26" as="geometry" />
        </mxCell>
        <mxCell id="JJXJcLjme7lauxdf09mU-20" value="+GetTickets(): Map&amp;lt;Integer, Integer&amp;gt;" style="text;strokeColor=none;fillColor=none;align=left;verticalAlign=top;spacingLeft=4;spacingRight=4;overflow=hidden;rotatable=0;points=[[0,0.5],[1,0.5]];portConstraint=eastwest;whiteSpace=wrap;html=1;fontColor=#000000;" parent="EUOa7AyO2jyz6yHNA7Qs-34" vertex="1">
          <mxGeometry y="268" width="560" height="26" as="geometry" />
        </mxCell>
        <mxCell id="JJXJcLjme7lauxdf09mU-21" value="+toString(): String" style="text;strokeColor=none;fillColor=none;align=left;verticalAlign=top;spacingLeft=4;spacingRight=4;overflow=hidden;rotatable=0;points=[[0,0.5],[1,0.5]];portConstraint=eastwest;whiteSpace=wrap;html=1;fontColor=#000000;" parent="EUOa7AyO2jyz6yHNA7Qs-34" vertex="1">
          <mxGeometry y="294" width="560" height="26" as="geometry" />
        </mxCell>
        <mxCell id="vqxXQO5X_f1XpehPMIfq-22" style="edgeStyle=orthogonalEdgeStyle;rounded=0;orthogonalLoop=1;jettySize=auto;html=1;entryX=0;entryY=0.5;entryDx=0;entryDy=0;endSize=25;endArrow=diamondThin;endFill=1;fontColor=#000000;exitX=0.557;exitY=0.916;exitDx=0;exitDy=0;exitPerimeter=0;" parent="vqxXQO5X_f1XpehPMIfq-102" source="ViaeIdblsGb_LhoVTpIe-33" target="JJXJcLjme7lauxdf09mU-15" edge="1">
          <mxGeometry relative="1" as="geometry">
            <mxPoint x="480" y="330" as="sourcePoint" />
            <mxPoint x="570" y="691.95" as="targetPoint" />
            <Array as="points">
              <mxPoint x="479" y="661" />
            </Array>
          </mxGeometry>
        </mxCell>
        <mxCell id="vqxXQO5X_f1XpehPMIfq-13" style="edgeStyle=orthogonalEdgeStyle;rounded=0;orthogonalLoop=1;jettySize=auto;html=1;entryX=0.5;entryY=1;entryDx=0;entryDy=0;entryPerimeter=0;endSize=15;endArrow=block;endFill=0;fontColor=#000000;" parent="vqxXQO5X_f1XpehPMIfq-102" source="EUOa7AyO2jyz6yHNA7Qs-34" target="JJXJcLjme7lauxdf09mU-10" edge="1">
          <mxGeometry relative="1" as="geometry">
            <Array as="points">
              <mxPoint x="1100" y="430" />
              <mxPoint x="1100" y="430" />
            </Array>
          </mxGeometry>
        </mxCell>
        <mxCell id="EUOa7AyO2jyz6yHNA7Qs-45" value="Package1" style="shape=folder;fontStyle=1;tabWidth=110;tabHeight=30;tabPosition=left;html=1;boundedLbl=1;labelInHeader=1;container=1;collapsible=0;recursiveResize=0;whiteSpace=wrap;fontColor=#000000;opacity=50;" parent="1" vertex="1">
          <mxGeometry x="880" y="685" width="1640" height="2545" as="geometry" />
        </mxCell>
        <mxCell id="EUOa7AyO2jyz6yHNA7Qs-74" value="Category" style="swimlane;fontStyle=1;align=center;verticalAlign=top;childLayout=stackLayout;horizontal=1;startSize=26;horizontalStack=0;resizeParent=1;resizeParentMax=0;resizeLast=0;collapsible=1;marginBottom=0;whiteSpace=wrap;html=1;fontColor=#ffffff;fillColor=#60a917;strokeColor=#2D7600;" parent="EUOa7AyO2jyz6yHNA7Qs-45" vertex="1">
          <mxGeometry x="30" y="70" width="180" height="198" as="geometry">
            <mxRectangle x="830" y="100" width="90" height="30" as="alternateBounds" />
          </mxGeometry>
        </mxCell>
        <mxCell id="EUOa7AyO2jyz6yHNA7Qs-75" value="-category: String" style="text;strokeColor=none;fillColor=none;align=left;verticalAlign=top;spacingLeft=4;spacingRight=4;overflow=hidden;rotatable=0;points=[[0,0.5],[1,0.5]];portConstraint=eastwest;whiteSpace=wrap;html=1;fontColor=#000000;" parent="EUOa7AyO2jyz6yHNA7Qs-74" vertex="1">
          <mxGeometry y="26" width="180" height="26" as="geometry" />
        </mxCell>
        <mxCell id="EUOa7AyO2jyz6yHNA7Qs-76" value="" style="line;strokeWidth=1;fillColor=none;align=left;verticalAlign=middle;spacingTop=-1;spacingLeft=3;spacingRight=3;rotatable=0;labelPosition=right;points=[];portConstraint=eastwest;strokeColor=inherit;fontColor=#000000;" parent="EUOa7AyO2jyz6yHNA7Qs-74" vertex="1">
          <mxGeometry y="52" width="180" height="8" as="geometry" />
        </mxCell>
        <mxCell id="EUOa7AyO2jyz6yHNA7Qs-77" value="+Category()" style="text;strokeColor=none;fillColor=none;align=left;verticalAlign=top;spacingLeft=4;spacingRight=4;overflow=hidden;rotatable=0;points=[[0,0.5],[1,0.5]];portConstraint=eastwest;whiteSpace=wrap;html=1;fontColor=#000000;" parent="EUOa7AyO2jyz6yHNA7Qs-74" vertex="1">
          <mxGeometry y="60" width="180" height="26" as="geometry" />
        </mxCell>
        <mxCell id="EUOa7AyO2jyz6yHNA7Qs-297" value="+Category(String)" style="text;strokeColor=none;fillColor=none;align=left;verticalAlign=top;spacingLeft=4;spacingRight=4;overflow=hidden;rotatable=0;points=[[0,0.5],[1,0.5]];portConstraint=eastwest;whiteSpace=wrap;html=1;fontColor=#000000;" parent="EUOa7AyO2jyz6yHNA7Qs-74" vertex="1">
          <mxGeometry y="86" width="180" height="28" as="geometry" />
        </mxCell>
        <mxCell id="EUOa7AyO2jyz6yHNA7Qs-298" value="&lt;u&gt;AddCategory(String): void&lt;/u&gt;" style="text;strokeColor=none;fillColor=none;align=left;verticalAlign=top;spacingLeft=4;spacingRight=4;overflow=hidden;rotatable=0;points=[[0,0.5],[1,0.5]];portConstraint=eastwest;whiteSpace=wrap;html=1;fontColor=#000000;" parent="EUOa7AyO2jyz6yHNA7Qs-74" vertex="1">
          <mxGeometry y="114" width="180" height="28" as="geometry" />
        </mxCell>
        <mxCell id="EUOa7AyO2jyz6yHNA7Qs-300" value="&lt;u&gt;RemoveCategory(String): void&lt;/u&gt;" style="text;strokeColor=none;fillColor=none;align=left;verticalAlign=top;spacingLeft=4;spacingRight=4;overflow=hidden;rotatable=0;points=[[0,0.5],[1,0.5]];portConstraint=eastwest;whiteSpace=wrap;html=1;fontColor=#000000;" parent="EUOa7AyO2jyz6yHNA7Qs-74" vertex="1">
          <mxGeometry y="142" width="180" height="28" as="geometry" />
        </mxCell>
        <mxCell id="EUOa7AyO2jyz6yHNA7Qs-299" value="+toString(): String" style="text;strokeColor=none;fillColor=none;align=left;verticalAlign=top;spacingLeft=4;spacingRight=4;overflow=hidden;rotatable=0;points=[[0,0.5],[1,0.5]];portConstraint=eastwest;whiteSpace=wrap;html=1;fontColor=#000000;" parent="EUOa7AyO2jyz6yHNA7Qs-74" vertex="1">
          <mxGeometry y="170" width="180" height="28" as="geometry" />
        </mxCell>
        <mxCell id="EUOa7AyO2jyz6yHNA7Qs-90" value="Room" style="swimlane;fontStyle=1;align=center;verticalAlign=top;childLayout=stackLayout;horizontal=1;startSize=26;horizontalStack=0;resizeParent=1;resizeParentMax=0;resizeLast=0;collapsible=1;marginBottom=0;whiteSpace=wrap;html=1;fontColor=#ffffff;fillColor=#60a917;strokeColor=#2D7600;" parent="EUOa7AyO2jyz6yHNA7Qs-45" vertex="1">
          <mxGeometry x="90" y="1140" width="310" height="476" as="geometry">
            <mxRectangle x="360" y="1170" width="70" height="30" as="alternateBounds" />
          </mxGeometry>
        </mxCell>
        <mxCell id="EUOa7AyO2jyz6yHNA7Qs-91" value="-id: int" style="text;strokeColor=none;fillColor=none;align=left;verticalAlign=top;spacingLeft=4;spacingRight=4;overflow=hidden;rotatable=0;points=[[0,0.5],[1,0.5]];portConstraint=eastwest;whiteSpace=wrap;html=1;" parent="EUOa7AyO2jyz6yHNA7Qs-90" vertex="1">
          <mxGeometry y="26" width="310" height="26" as="geometry" />
        </mxCell>
        <mxCell id="JJXJcLjme7lauxdf09mU-23" value="-currentEvent: Event" style="text;strokeColor=none;fillColor=none;align=left;verticalAlign=top;spacingLeft=4;spacingRight=4;overflow=hidden;rotatable=0;points=[[0,0.5],[1,0.5]];portConstraint=eastwest;whiteSpace=wrap;html=1;" parent="EUOa7AyO2jyz6yHNA7Qs-90" vertex="1">
          <mxGeometry y="52" width="310" height="26" as="geometry" />
        </mxCell>
        <mxCell id="JJXJcLjme7lauxdf09mU-24" value="-availableHours: Hours" style="text;strokeColor=none;fillColor=none;align=left;verticalAlign=top;spacingLeft=4;spacingRight=4;overflow=hidden;rotatable=0;points=[[0,0.5],[1,0.5]];portConstraint=eastwest;whiteSpace=wrap;html=1;" parent="EUOa7AyO2jyz6yHNA7Qs-90" vertex="1">
          <mxGeometry y="78" width="310" height="26" as="geometry" />
        </mxCell>
        <mxCell id="JJXJcLjme7lauxdf09mU-25" value="-reservedHours: Hours" style="text;strokeColor=none;fillColor=none;align=left;verticalAlign=top;spacingLeft=4;spacingRight=4;overflow=hidden;rotatable=0;points=[[0,0.5],[1,0.5]];portConstraint=eastwest;whiteSpace=wrap;html=1;" parent="EUOa7AyO2jyz6yHNA7Qs-90" vertex="1">
          <mxGeometry y="104" width="310" height="26" as="geometry" />
        </mxCell>
        <mxCell id="JJXJcLjme7lauxdf09mU-22" value="-LOCATION: String" style="text;strokeColor=none;fillColor=none;align=left;verticalAlign=top;spacingLeft=4;spacingRight=4;overflow=hidden;rotatable=0;points=[[0,0.5],[1,0.5]];portConstraint=eastwest;whiteSpace=wrap;html=1;" parent="EUOa7AyO2jyz6yHNA7Qs-90" vertex="1">
          <mxGeometry y="130" width="310" height="26" as="geometry" />
        </mxCell>
        <mxCell id="JJXJcLjme7lauxdf09mU-26" value="-MAX_CAPACITY: int" style="text;strokeColor=none;fillColor=none;align=left;verticalAlign=top;spacingLeft=4;spacingRight=4;overflow=hidden;rotatable=0;points=[[0,0.5],[1,0.5]];portConstraint=eastwest;whiteSpace=wrap;html=1;" parent="EUOa7AyO2jyz6yHNA7Qs-90" vertex="1">
          <mxGeometry y="156" width="310" height="26" as="geometry" />
        </mxCell>
        <mxCell id="EUOa7AyO2jyz6yHNA7Qs-92" value="" style="line;strokeWidth=1;fillColor=none;align=left;verticalAlign=middle;spacingTop=-1;spacingLeft=3;spacingRight=3;rotatable=0;labelPosition=right;points=[];portConstraint=eastwest;strokeColor=inherit;" parent="EUOa7AyO2jyz6yHNA7Qs-90" vertex="1">
          <mxGeometry y="182" width="310" height="8" as="geometry" />
        </mxCell>
        <mxCell id="EUOa7AyO2jyz6yHNA7Qs-93" value="+Room(int, Event, Hours, Hours, String, int)" style="text;strokeColor=none;fillColor=none;align=left;verticalAlign=top;spacingLeft=4;spacingRight=4;overflow=hidden;rotatable=0;points=[[0,0.5],[1,0.5]];portConstraint=eastwest;whiteSpace=wrap;html=1;" parent="EUOa7AyO2jyz6yHNA7Qs-90" vertex="1">
          <mxGeometry y="190" width="310" height="26" as="geometry" />
        </mxCell>
        <mxCell id="JJXJcLjme7lauxdf09mU-27" value="+&lt;u&gt;FindRoom(ArrayList&amp;lt;Room&amp;gt;, int): Room&lt;/u&gt;" style="text;strokeColor=none;fillColor=none;align=left;verticalAlign=top;spacingLeft=4;spacingRight=4;overflow=hidden;rotatable=0;points=[[0,0.5],[1,0.5]];portConstraint=eastwest;whiteSpace=wrap;html=1;" parent="EUOa7AyO2jyz6yHNA7Qs-90" vertex="1">
          <mxGeometry y="216" width="310" height="26" as="geometry" />
        </mxCell>
        <mxCell id="JJXJcLjme7lauxdf09mU-28" value="+AddAvailableHours(TimeRange, String): void" style="text;strokeColor=none;fillColor=none;align=left;verticalAlign=top;spacingLeft=4;spacingRight=4;overflow=hidden;rotatable=0;points=[[0,0.5],[1,0.5]];portConstraint=eastwest;whiteSpace=wrap;html=1;" parent="EUOa7AyO2jyz6yHNA7Qs-90" vertex="1">
          <mxGeometry y="242" width="310" height="26" as="geometry" />
        </mxCell>
        <mxCell id="JJXJcLjme7lauxdf09mU-29" value="+RemoveAvailableHours(TimeRange, String): void" style="text;strokeColor=none;fillColor=none;align=left;verticalAlign=top;spacingLeft=4;spacingRight=4;overflow=hidden;rotatable=0;points=[[0,0.5],[1,0.5]];portConstraint=eastwest;whiteSpace=wrap;html=1;" parent="EUOa7AyO2jyz6yHNA7Qs-90" vertex="1">
          <mxGeometry y="268" width="310" height="26" as="geometry" />
        </mxCell>
        <mxCell id="JJXJcLjme7lauxdf09mU-30" value="+SetAvailableHours(Hours): void" style="text;strokeColor=none;fillColor=none;align=left;verticalAlign=top;spacingLeft=4;spacingRight=4;overflow=hidden;rotatable=0;points=[[0,0.5],[1,0.5]];portConstraint=eastwest;whiteSpace=wrap;html=1;" parent="EUOa7AyO2jyz6yHNA7Qs-90" vertex="1">
          <mxGeometry y="294" width="310" height="26" as="geometry" />
        </mxCell>
        <mxCell id="JJXJcLjme7lauxdf09mU-36" value="+GetID(): int" style="text;strokeColor=none;fillColor=none;align=left;verticalAlign=top;spacingLeft=4;spacingRight=4;overflow=hidden;rotatable=0;points=[[0,0.5],[1,0.5]];portConstraint=eastwest;whiteSpace=wrap;html=1;" parent="EUOa7AyO2jyz6yHNA7Qs-90" vertex="1">
          <mxGeometry y="320" width="310" height="26" as="geometry" />
        </mxCell>
        <mxCell id="JJXJcLjme7lauxdf09mU-37" value="+GetCurrentEvent(): Event" style="text;strokeColor=none;fillColor=none;align=left;verticalAlign=top;spacingLeft=4;spacingRight=4;overflow=hidden;rotatable=0;points=[[0,0.5],[1,0.5]];portConstraint=eastwest;whiteSpace=wrap;html=1;" parent="EUOa7AyO2jyz6yHNA7Qs-90" vertex="1">
          <mxGeometry y="346" width="310" height="26" as="geometry" />
        </mxCell>
        <mxCell id="JJXJcLjme7lauxdf09mU-38" value="+GetAvailableHours(): Hours" style="text;strokeColor=none;fillColor=none;align=left;verticalAlign=top;spacingLeft=4;spacingRight=4;overflow=hidden;rotatable=0;points=[[0,0.5],[1,0.5]];portConstraint=eastwest;whiteSpace=wrap;html=1;" parent="EUOa7AyO2jyz6yHNA7Qs-90" vertex="1">
          <mxGeometry y="372" width="310" height="26" as="geometry" />
        </mxCell>
        <mxCell id="JJXJcLjme7lauxdf09mU-39" value="+GetReservedHours(): Hours" style="text;strokeColor=none;fillColor=none;align=left;verticalAlign=top;spacingLeft=4;spacingRight=4;overflow=hidden;rotatable=0;points=[[0,0.5],[1,0.5]];portConstraint=eastwest;whiteSpace=wrap;html=1;" parent="EUOa7AyO2jyz6yHNA7Qs-90" vertex="1">
          <mxGeometry y="398" width="310" height="26" as="geometry" />
        </mxCell>
        <mxCell id="JJXJcLjme7lauxdf09mU-41" value="+GetMaxCapacity(): int" style="text;strokeColor=none;fillColor=none;align=left;verticalAlign=top;spacingLeft=4;spacingRight=4;overflow=hidden;rotatable=0;points=[[0,0.5],[1,0.5]];portConstraint=eastwest;whiteSpace=wrap;html=1;" parent="EUOa7AyO2jyz6yHNA7Qs-90" vertex="1">
          <mxGeometry y="424" width="310" height="26" as="geometry" />
        </mxCell>
        <mxCell id="JJXJcLjme7lauxdf09mU-40" value="+toString(): String" style="text;strokeColor=none;fillColor=none;align=left;verticalAlign=top;spacingLeft=4;spacingRight=4;overflow=hidden;rotatable=0;points=[[0,0.5],[1,0.5]];portConstraint=eastwest;whiteSpace=wrap;html=1;" parent="EUOa7AyO2jyz6yHNA7Qs-90" vertex="1">
          <mxGeometry y="450" width="310" height="26" as="geometry" />
        </mxCell>
        <mxCell id="vqxXQO5X_f1XpehPMIfq-50" style="edgeStyle=orthogonalEdgeStyle;rounded=0;orthogonalLoop=1;jettySize=auto;html=1;endArrow=none;startFill=0;jumpStyle=arc;jumpSize=15;" parent="EUOa7AyO2jyz6yHNA7Qs-45" source="EUOa7AyO2jyz6yHNA7Qs-240" target="ViaeIdblsGb_LhoVTpIe-15" edge="1">
          <mxGeometry relative="1" as="geometry" />
        </mxCell>
        <mxCell id="EUOa7AyO2jyz6yHNA7Qs-240" value="&amp;lt;&amp;lt;enum&amp;gt;&amp;gt;&lt;div&gt;Day&lt;/div&gt;" style="swimlane;fontStyle=1;align=center;verticalAlign=top;childLayout=stackLayout;horizontal=1;startSize=40;horizontalStack=0;resizeParent=1;resizeParentMax=0;resizeLast=0;collapsible=1;marginBottom=0;whiteSpace=wrap;html=1;fontColor=#ffffff;fillColor=#60a917;strokeColor=#2D7600;" parent="EUOa7AyO2jyz6yHNA7Qs-45" vertex="1">
          <mxGeometry x="780" y="460" width="170" height="298" as="geometry">
            <mxRectangle x="1760" y="149" width="120" height="40" as="alternateBounds" />
          </mxGeometry>
        </mxCell>
        <mxCell id="EUOa7AyO2jyz6yHNA7Qs-241" value="SATURDAY" style="html=1;align=left;spacing=0;spacingLeft=8;verticalAlign=middle;strokeColor=none;fillColor=none;whiteSpace=wrap;" parent="EUOa7AyO2jyz6yHNA7Qs-240" vertex="1">
          <mxGeometry y="40" width="170" height="16" as="geometry" />
        </mxCell>
        <mxCell id="EUOa7AyO2jyz6yHNA7Qs-242" value="SUNDAY" style="html=1;align=left;spacing=0;spacingLeft=8;verticalAlign=middle;strokeColor=none;fillColor=none;whiteSpace=wrap;" parent="EUOa7AyO2jyz6yHNA7Qs-240" vertex="1">
          <mxGeometry y="56" width="170" height="16" as="geometry" />
        </mxCell>
        <mxCell id="EUOa7AyO2jyz6yHNA7Qs-243" value="MONDAY" style="html=1;align=left;spacing=0;spacingLeft=8;verticalAlign=middle;strokeColor=none;fillColor=none;whiteSpace=wrap;" parent="EUOa7AyO2jyz6yHNA7Qs-240" vertex="1">
          <mxGeometry y="72" width="170" height="16" as="geometry" />
        </mxCell>
        <mxCell id="EUOa7AyO2jyz6yHNA7Qs-244" value="TUESDAY" style="html=1;align=left;spacing=0;spacingLeft=8;verticalAlign=middle;strokeColor=none;fillColor=none;whiteSpace=wrap;" parent="EUOa7AyO2jyz6yHNA7Qs-240" vertex="1">
          <mxGeometry y="88" width="170" height="16" as="geometry" />
        </mxCell>
        <mxCell id="EUOa7AyO2jyz6yHNA7Qs-245" value="WEDNESDAY" style="html=1;align=left;spacing=0;spacingLeft=8;verticalAlign=middle;strokeColor=none;fillColor=none;whiteSpace=wrap;" parent="EUOa7AyO2jyz6yHNA7Qs-240" vertex="1">
          <mxGeometry y="104" width="170" height="16" as="geometry" />
        </mxCell>
        <mxCell id="EUOa7AyO2jyz6yHNA7Qs-246" value="THURSDAY" style="html=1;align=left;spacing=0;spacingLeft=8;verticalAlign=middle;strokeColor=none;fillColor=none;whiteSpace=wrap;" parent="EUOa7AyO2jyz6yHNA7Qs-240" vertex="1">
          <mxGeometry y="120" width="170" height="16" as="geometry" />
        </mxCell>
        <mxCell id="EUOa7AyO2jyz6yHNA7Qs-247" value="FRIDAY" style="html=1;align=left;spacing=0;spacingLeft=8;verticalAlign=middle;strokeColor=none;fillColor=none;whiteSpace=wrap;" parent="EUOa7AyO2jyz6yHNA7Qs-240" vertex="1">
          <mxGeometry y="136" width="170" height="16" as="geometry" />
        </mxCell>
        <mxCell id="EUOa7AyO2jyz6yHNA7Qs-270" value="" style="line;strokeWidth=1;fillColor=none;align=left;verticalAlign=middle;spacingTop=-1;spacingLeft=3;spacingRight=3;rotatable=0;labelPosition=right;points=[];portConstraint=eastwest;strokeColor=inherit;" parent="EUOa7AyO2jyz6yHNA7Qs-240" vertex="1">
          <mxGeometry y="152" width="170" height="10" as="geometry" />
        </mxCell>
        <mxCell id="EUOa7AyO2jyz6yHNA7Qs-271" value="+&lt;u&gt;days: Map&amp;lt;String, Integer&amp;gt;&lt;/u&gt;" style="text;strokeColor=none;fillColor=none;align=left;verticalAlign=top;spacingLeft=4;spacingRight=4;overflow=hidden;rotatable=0;points=[[0,0.5],[1,0.5]];portConstraint=eastwest;whiteSpace=wrap;html=1;" parent="EUOa7AyO2jyz6yHNA7Qs-240" vertex="1">
          <mxGeometry y="162" width="170" height="20" as="geometry" />
        </mxCell>
        <mxCell id="EUOa7AyO2jyz6yHNA7Qs-275" value="-day: String" style="text;strokeColor=none;fillColor=none;align=left;verticalAlign=top;spacingLeft=4;spacingRight=4;overflow=hidden;rotatable=0;points=[[0,0.5],[1,0.5]];portConstraint=eastwest;whiteSpace=wrap;html=1;" parent="EUOa7AyO2jyz6yHNA7Qs-240" vertex="1">
          <mxGeometry y="182" width="170" height="20" as="geometry" />
        </mxCell>
        <mxCell id="EUOa7AyO2jyz6yHNA7Qs-272" value="" style="line;strokeWidth=1;fillColor=none;align=left;verticalAlign=middle;spacingTop=-1;spacingLeft=3;spacingRight=3;rotatable=0;labelPosition=right;points=[];portConstraint=eastwest;strokeColor=inherit;" parent="EUOa7AyO2jyz6yHNA7Qs-240" vertex="1">
          <mxGeometry y="202" width="170" height="18" as="geometry" />
        </mxCell>
        <mxCell id="EUOa7AyO2jyz6yHNA7Qs-274" value="&lt;u&gt;Day(String)&lt;/u&gt;" style="text;strokeColor=none;fillColor=none;align=left;verticalAlign=top;spacingLeft=4;spacingRight=4;overflow=hidden;rotatable=0;points=[[0,0.5],[1,0.5]];portConstraint=eastwest;whiteSpace=wrap;html=1;" parent="EUOa7AyO2jyz6yHNA7Qs-240" vertex="1">
          <mxGeometry y="220" width="170" height="26" as="geometry" />
        </mxCell>
        <mxCell id="EUOa7AyO2jyz6yHNA7Qs-273" value="+toString(): String" style="text;strokeColor=none;fillColor=none;align=left;verticalAlign=top;spacingLeft=4;spacingRight=4;overflow=hidden;rotatable=0;points=[[0,0.5],[1,0.5]];portConstraint=eastwest;whiteSpace=wrap;html=1;" parent="EUOa7AyO2jyz6yHNA7Qs-240" vertex="1">
          <mxGeometry y="246" width="170" height="26" as="geometry" />
        </mxCell>
        <mxCell id="nFGXx0vNRWT5Ij3B57wI-5" value="+&lt;u&gt;Translate(int): Day&lt;/u&gt;" style="text;strokeColor=none;fillColor=none;align=left;verticalAlign=top;spacingLeft=4;spacingRight=4;overflow=hidden;rotatable=0;points=[[0,0.5],[1,0.5]];portConstraint=eastwest;whiteSpace=wrap;html=1;" parent="EUOa7AyO2jyz6yHNA7Qs-240" vertex="1">
          <mxGeometry y="272" width="170" height="26" as="geometry" />
        </mxCell>
        <mxCell id="ViaeIdblsGb_LhoVTpIe-10" value="MyDate" style="swimlane;fontStyle=1;align=center;verticalAlign=top;childLayout=stackLayout;horizontal=1;startSize=26;horizontalStack=0;resizeParent=1;resizeParentMax=0;resizeLast=0;collapsible=1;marginBottom=0;whiteSpace=wrap;html=1;fillColor=#60a917;fontColor=#ffffff;strokeColor=#2D7600;" parent="EUOa7AyO2jyz6yHNA7Qs-45" vertex="1">
          <mxGeometry x="130" y="500" width="230" height="346" as="geometry">
            <mxRectangle x="120" y="520" width="80" height="30" as="alternateBounds" />
          </mxGeometry>
        </mxCell>
        <mxCell id="ViaeIdblsGb_LhoVTpIe-11" value="-DAY: int" style="text;strokeColor=none;fillColor=none;align=left;verticalAlign=top;spacingLeft=4;spacingRight=4;overflow=hidden;rotatable=0;points=[[0,0.5],[1,0.5]];portConstraint=eastwest;whiteSpace=wrap;html=1;fontColor=#000000;" parent="ViaeIdblsGb_LhoVTpIe-10" vertex="1">
          <mxGeometry y="26" width="230" height="26" as="geometry" />
        </mxCell>
        <mxCell id="ViaeIdblsGb_LhoVTpIe-12" value="-MONTH: int" style="text;strokeColor=none;fillColor=none;align=left;verticalAlign=top;spacingLeft=4;spacingRight=4;overflow=hidden;rotatable=0;points=[[0,0.5],[1,0.5]];portConstraint=eastwest;whiteSpace=wrap;html=1;fontColor=#000000;" parent="ViaeIdblsGb_LhoVTpIe-10" vertex="1">
          <mxGeometry y="52" width="230" height="26" as="geometry" />
        </mxCell>
        <mxCell id="ViaeIdblsGb_LhoVTpIe-13" value="-YEAR: int" style="text;strokeColor=none;fillColor=none;align=left;verticalAlign=top;spacingLeft=4;spacingRight=4;overflow=hidden;rotatable=0;points=[[0,0.5],[1,0.5]];portConstraint=eastwest;whiteSpace=wrap;html=1;fontColor=#000000;" parent="ViaeIdblsGb_LhoVTpIe-10" vertex="1">
          <mxGeometry y="78" width="230" height="26" as="geometry" />
        </mxCell>
        <mxCell id="ViaeIdblsGb_LhoVTpIe-14" value="" style="line;strokeWidth=1;fillColor=none;align=left;verticalAlign=middle;spacingTop=-1;spacingLeft=3;spacingRight=3;rotatable=0;labelPosition=right;points=[];portConstraint=eastwest;strokeColor=inherit;fontColor=#000000;" parent="ViaeIdblsGb_LhoVTpIe-10" vertex="1">
          <mxGeometry y="104" width="230" height="8" as="geometry" />
        </mxCell>
        <mxCell id="ViaeIdblsGb_LhoVTpIe-15" value="+MyDate(int,int,int)" style="text;strokeColor=none;fillColor=none;align=left;verticalAlign=top;spacingLeft=4;spacingRight=4;overflow=hidden;rotatable=0;points=[[0,0.5],[1,0.5]];portConstraint=eastwest;whiteSpace=wrap;html=1;fontColor=#000000;" parent="ViaeIdblsGb_LhoVTpIe-10" vertex="1">
          <mxGeometry y="112" width="230" height="26" as="geometry" />
        </mxCell>
        <mxCell id="ViaeIdblsGb_LhoVTpIe-16" value="+MyDate(String)" style="text;strokeColor=none;fillColor=none;align=left;verticalAlign=top;spacingLeft=4;spacingRight=4;overflow=hidden;rotatable=0;points=[[0,0.5],[1,0.5]];portConstraint=eastwest;whiteSpace=wrap;html=1;fontColor=#000000;" parent="ViaeIdblsGb_LhoVTpIe-10" vertex="1">
          <mxGeometry y="138" width="230" height="26" as="geometry" />
        </mxCell>
        <mxCell id="ViaeIdblsGb_LhoVTpIe-17" value="-&lt;u&gt;IsLeapYear(int): boolean&lt;/u&gt;" style="text;strokeColor=none;fillColor=none;align=left;verticalAlign=top;spacingLeft=4;spacingRight=4;overflow=hidden;rotatable=0;points=[[0,0.5],[1,0.5]];portConstraint=eastwest;whiteSpace=wrap;html=1;fontColor=#000000;" parent="ViaeIdblsGb_LhoVTpIe-10" vertex="1">
          <mxGeometry y="164" width="230" height="26" as="geometry" />
        </mxCell>
        <mxCell id="ViaeIdblsGb_LhoVTpIe-18" value="+GetDay(): int" style="text;strokeColor=none;fillColor=none;align=left;verticalAlign=top;spacingLeft=4;spacingRight=4;overflow=hidden;rotatable=0;points=[[0,0.5],[1,0.5]];portConstraint=eastwest;whiteSpace=wrap;html=1;fontColor=#000000;" parent="ViaeIdblsGb_LhoVTpIe-10" vertex="1">
          <mxGeometry y="190" width="230" height="26" as="geometry" />
        </mxCell>
        <mxCell id="ViaeIdblsGb_LhoVTpIe-19" value="+GetMonth(): int" style="text;strokeColor=none;fillColor=none;align=left;verticalAlign=top;spacingLeft=4;spacingRight=4;overflow=hidden;rotatable=0;points=[[0,0.5],[1,0.5]];portConstraint=eastwest;whiteSpace=wrap;html=1;fontColor=#000000;" parent="ViaeIdblsGb_LhoVTpIe-10" vertex="1">
          <mxGeometry y="216" width="230" height="26" as="geometry" />
        </mxCell>
        <mxCell id="ViaeIdblsGb_LhoVTpIe-20" value="+GetYear(): int" style="text;strokeColor=none;fillColor=none;align=left;verticalAlign=top;spacingLeft=4;spacingRight=4;overflow=hidden;rotatable=0;points=[[0,0.5],[1,0.5]];portConstraint=eastwest;whiteSpace=wrap;html=1;fontColor=#000000;" parent="ViaeIdblsGb_LhoVTpIe-10" vertex="1">
          <mxGeometry y="242" width="230" height="26" as="geometry" />
        </mxCell>
        <mxCell id="ViaeIdblsGb_LhoVTpIe-21" value="+&lt;u&gt;GetDayOfTheWeek(MyDate): Day&lt;/u&gt;" style="text;strokeColor=none;fillColor=none;align=left;verticalAlign=top;spacingLeft=4;spacingRight=4;overflow=hidden;rotatable=0;points=[[0,0.5],[1,0.5]];portConstraint=eastwest;whiteSpace=wrap;html=1;fontColor=#000000;" parent="ViaeIdblsGb_LhoVTpIe-10" vertex="1">
          <mxGeometry y="268" width="230" height="26" as="geometry" />
        </mxCell>
        <mxCell id="ViaeIdblsGb_LhoVTpIe-22" value="+toString(): String" style="text;strokeColor=none;fillColor=none;align=left;verticalAlign=top;spacingLeft=4;spacingRight=4;overflow=hidden;rotatable=0;points=[[0,0.5],[1,0.5]];portConstraint=eastwest;whiteSpace=wrap;html=1;fontColor=#000000;" parent="ViaeIdblsGb_LhoVTpIe-10" vertex="1">
          <mxGeometry y="294" width="230" height="26" as="geometry" />
        </mxCell>
        <mxCell id="ViaeIdblsGb_LhoVTpIe-23" value="+equals(Object): boolean" style="text;strokeColor=none;fillColor=none;align=left;verticalAlign=top;spacingLeft=4;spacingRight=4;overflow=hidden;rotatable=0;points=[[0,0.5],[1,0.5]];portConstraint=eastwest;whiteSpace=wrap;html=1;fontColor=#000000;" parent="ViaeIdblsGb_LhoVTpIe-10" vertex="1">
          <mxGeometry y="320" width="230" height="26" as="geometry" />
        </mxCell>
        <mxCell id="EUOa7AyO2jyz6yHNA7Qs-126" value="Hours" style="swimlane;fontStyle=1;align=center;verticalAlign=top;childLayout=stackLayout;horizontal=1;startSize=26;horizontalStack=0;resizeParent=1;resizeParentMax=0;resizeLast=0;collapsible=1;marginBottom=0;whiteSpace=wrap;html=1;fontColor=#ffffff;fillColor=#60a917;strokeColor=#2D7600;" parent="EUOa7AyO2jyz6yHNA7Qs-45" vertex="1">
          <mxGeometry x="760" y="120" width="420" height="242" as="geometry">
            <mxRectangle x="960" y="370" width="70" height="30" as="alternateBounds" />
          </mxGeometry>
        </mxCell>
        <mxCell id="EUOa7AyO2jyz6yHNA7Qs-127" value="map: Map&amp;lt;String, ArrayList&amp;lt;TimeRange&amp;gt;&amp;gt;" style="text;strokeColor=none;fillColor=none;align=left;verticalAlign=top;spacingLeft=4;spacingRight=4;overflow=hidden;rotatable=0;points=[[0,0.5],[1,0.5]];portConstraint=eastwest;whiteSpace=wrap;html=1;" parent="EUOa7AyO2jyz6yHNA7Qs-126" vertex="1">
          <mxGeometry y="26" width="420" height="26" as="geometry" />
        </mxCell>
        <mxCell id="EUOa7AyO2jyz6yHNA7Qs-128" value="" style="line;strokeWidth=1;fillColor=none;align=left;verticalAlign=middle;spacingTop=-1;spacingLeft=3;spacingRight=3;rotatable=0;labelPosition=right;points=[];portConstraint=eastwest;strokeColor=inherit;" parent="EUOa7AyO2jyz6yHNA7Qs-126" vertex="1">
          <mxGeometry y="52" width="420" height="8" as="geometry" />
        </mxCell>
        <mxCell id="EUOa7AyO2jyz6yHNA7Qs-280" value="+Hours(Map&amp;lt;String, ArrayList&amp;lt;TimeRange&amp;gt;&amp;gt;)" style="text;strokeColor=none;fillColor=none;align=left;verticalAlign=top;spacingLeft=4;spacingRight=4;overflow=hidden;rotatable=0;points=[[0,0.5],[1,0.5]];portConstraint=eastwest;whiteSpace=wrap;html=1;" parent="EUOa7AyO2jyz6yHNA7Qs-126" vertex="1">
          <mxGeometry y="60" width="420" height="26" as="geometry" />
        </mxCell>
        <mxCell id="EUOa7AyO2jyz6yHNA7Qs-277" value="+Contains(TimeRange,String): boolean" style="text;strokeColor=none;fillColor=none;align=left;verticalAlign=top;spacingLeft=4;spacingRight=4;overflow=hidden;rotatable=0;points=[[0,0.5],[1,0.5]];portConstraint=eastwest;whiteSpace=wrap;html=1;" parent="EUOa7AyO2jyz6yHNA7Qs-126" vertex="1">
          <mxGeometry y="86" width="420" height="26" as="geometry" />
        </mxCell>
        <mxCell id="JJXJcLjme7lauxdf09mU-58" value="+Overlaps(TimeRange,String): boolean" style="text;strokeColor=none;fillColor=none;align=left;verticalAlign=top;spacingLeft=4;spacingRight=4;overflow=hidden;rotatable=0;points=[[0,0.5],[1,0.5]];portConstraint=eastwest;whiteSpace=wrap;html=1;" parent="EUOa7AyO2jyz6yHNA7Qs-126" vertex="1">
          <mxGeometry y="112" width="420" height="26" as="geometry" />
        </mxCell>
        <mxCell id="EUOa7AyO2jyz6yHNA7Qs-279" value="+RemoveTime(String, TimeRange): void" style="text;strokeColor=none;fillColor=none;align=left;verticalAlign=top;spacingLeft=4;spacingRight=4;overflow=hidden;rotatable=0;points=[[0,0.5],[1,0.5]];portConstraint=eastwest;whiteSpace=wrap;html=1;" parent="EUOa7AyO2jyz6yHNA7Qs-126" vertex="1">
          <mxGeometry y="138" width="420" height="26" as="geometry" />
        </mxCell>
        <mxCell id="EUOa7AyO2jyz6yHNA7Qs-283" value="+AddTime(String,TimeRange): void" style="text;strokeColor=none;fillColor=none;align=left;verticalAlign=top;spacingLeft=4;spacingRight=4;overflow=hidden;rotatable=0;points=[[0,0.5],[1,0.5]];portConstraint=eastwest;whiteSpace=wrap;html=1;" parent="EUOa7AyO2jyz6yHNA7Qs-126" vertex="1">
          <mxGeometry y="164" width="420" height="26" as="geometry" />
        </mxCell>
        <mxCell id="EUOa7AyO2jyz6yHNA7Qs-282" value="+CheckArrange(): void" style="text;strokeColor=none;fillColor=none;align=left;verticalAlign=top;spacingLeft=4;spacingRight=4;overflow=hidden;rotatable=0;points=[[0,0.5],[1,0.5]];portConstraint=eastwest;whiteSpace=wrap;html=1;" parent="EUOa7AyO2jyz6yHNA7Qs-126" vertex="1">
          <mxGeometry y="190" width="420" height="26" as="geometry" />
        </mxCell>
        <mxCell id="EUOa7AyO2jyz6yHNA7Qs-281" value="+toString(): String" style="text;strokeColor=none;fillColor=none;align=left;verticalAlign=top;spacingLeft=4;spacingRight=4;overflow=hidden;rotatable=0;points=[[0,0.5],[1,0.5]];portConstraint=eastwest;whiteSpace=wrap;html=1;" parent="EUOa7AyO2jyz6yHNA7Qs-126" vertex="1">
          <mxGeometry y="216" width="420" height="26" as="geometry" />
        </mxCell>
        <mxCell id="vqxXQO5X_f1XpehPMIfq-34" style="edgeStyle=orthogonalEdgeStyle;rounded=0;orthogonalLoop=1;jettySize=auto;html=1;endSize=25;endArrow=diamondThin;endFill=0;" parent="EUOa7AyO2jyz6yHNA7Qs-45" source="EUOa7AyO2jyz6yHNA7Qs-82" target="EUOa7AyO2jyz6yHNA7Qs-281" edge="1">
          <mxGeometry relative="1" as="geometry" />
        </mxCell>
        <mxCell id="EUOa7AyO2jyz6yHNA7Qs-82" value="TimeRange" style="swimlane;fontStyle=1;align=center;verticalAlign=top;childLayout=stackLayout;horizontal=1;startSize=26;horizontalStack=0;resizeParent=1;resizeParentMax=0;resizeLast=0;collapsible=1;marginBottom=0;whiteSpace=wrap;html=1;fontColor=#ffffff;fillColor=#60a917;strokeColor=#2D7600;" parent="EUOa7AyO2jyz6yHNA7Qs-45" vertex="1">
          <mxGeometry x="1180" y="460" width="390" height="502" as="geometry">
            <mxRectangle x="1390" y="210" width="100" height="30" as="alternateBounds" />
          </mxGeometry>
        </mxCell>
        <mxCell id="EUOa7AyO2jyz6yHNA7Qs-83" value="start: double" style="text;strokeColor=none;fillColor=none;align=left;verticalAlign=top;spacingLeft=4;spacingRight=4;overflow=hidden;rotatable=0;points=[[0,0.5],[1,0.5]];portConstraint=eastwest;whiteSpace=wrap;html=1;" parent="EUOa7AyO2jyz6yHNA7Qs-82" vertex="1">
          <mxGeometry y="26" width="390" height="26" as="geometry" />
        </mxCell>
        <mxCell id="JJXJcLjme7lauxdf09mU-42" value="end: double" style="text;strokeColor=none;fillColor=none;align=left;verticalAlign=top;spacingLeft=4;spacingRight=4;overflow=hidden;rotatable=0;points=[[0,0.5],[1,0.5]];portConstraint=eastwest;whiteSpace=wrap;html=1;" parent="EUOa7AyO2jyz6yHNA7Qs-82" vertex="1">
          <mxGeometry y="52" width="390" height="26" as="geometry" />
        </mxCell>
        <mxCell id="EUOa7AyO2jyz6yHNA7Qs-84" value="" style="line;strokeWidth=1;fillColor=none;align=left;verticalAlign=middle;spacingTop=-1;spacingLeft=3;spacingRight=3;rotatable=0;labelPosition=right;points=[];portConstraint=eastwest;strokeColor=inherit;" parent="EUOa7AyO2jyz6yHNA7Qs-82" vertex="1">
          <mxGeometry y="78" width="390" height="8" as="geometry" />
        </mxCell>
        <mxCell id="EUOa7AyO2jyz6yHNA7Qs-85" value="+TimeRange(double, double)" style="text;strokeColor=none;fillColor=none;align=left;verticalAlign=top;spacingLeft=4;spacingRight=4;overflow=hidden;rotatable=0;points=[[0,0.5],[1,0.5]];portConstraint=eastwest;whiteSpace=wrap;html=1;" parent="EUOa7AyO2jyz6yHNA7Qs-82" vertex="1">
          <mxGeometry y="86" width="390" height="26" as="geometry" />
        </mxCell>
        <mxCell id="JJXJcLjme7lauxdf09mU-43" value="+TimeRange(String, String)" style="text;strokeColor=none;fillColor=none;align=left;verticalAlign=top;spacingLeft=4;spacingRight=4;overflow=hidden;rotatable=0;points=[[0,0.5],[1,0.5]];portConstraint=eastwest;whiteSpace=wrap;html=1;" parent="EUOa7AyO2jyz6yHNA7Qs-82" vertex="1">
          <mxGeometry y="112" width="390" height="26" as="geometry" />
        </mxCell>
        <mxCell id="JJXJcLjme7lauxdf09mU-44" value="+GetTotalTime(): double" style="text;strokeColor=none;fillColor=none;align=left;verticalAlign=top;spacingLeft=4;spacingRight=4;overflow=hidden;rotatable=0;points=[[0,0.5],[1,0.5]];portConstraint=eastwest;whiteSpace=wrap;html=1;" parent="EUOa7AyO2jyz6yHNA7Qs-82" vertex="1">
          <mxGeometry y="138" width="390" height="26" as="geometry" />
        </mxCell>
        <mxCell id="JJXJcLjme7lauxdf09mU-45" value="+&lt;u&gt;Convert(double): String&lt;/u&gt;" style="text;strokeColor=none;fillColor=none;align=left;verticalAlign=top;spacingLeft=4;spacingRight=4;overflow=hidden;rotatable=0;points=[[0,0.5],[1,0.5]];portConstraint=eastwest;whiteSpace=wrap;html=1;" parent="EUOa7AyO2jyz6yHNA7Qs-82" vertex="1">
          <mxGeometry y="164" width="390" height="26" as="geometry" />
        </mxCell>
        <mxCell id="JJXJcLjme7lauxdf09mU-49" value="+&lt;u&gt;Convert(String): double&lt;/u&gt;" style="text;strokeColor=none;fillColor=none;align=left;verticalAlign=top;spacingLeft=4;spacingRight=4;overflow=hidden;rotatable=0;points=[[0,0.5],[1,0.5]];portConstraint=eastwest;whiteSpace=wrap;html=1;" parent="EUOa7AyO2jyz6yHNA7Qs-82" vertex="1">
          <mxGeometry y="190" width="390" height="26" as="geometry" />
        </mxCell>
        <mxCell id="JJXJcLjme7lauxdf09mU-46" value="+Contains(TimeRange): boolean" style="text;strokeColor=none;fillColor=none;align=left;verticalAlign=top;spacingLeft=4;spacingRight=4;overflow=hidden;rotatable=0;points=[[0,0.5],[1,0.5]];portConstraint=eastwest;whiteSpace=wrap;html=1;" parent="EUOa7AyO2jyz6yHNA7Qs-82" vertex="1">
          <mxGeometry y="216" width="390" height="26" as="geometry" />
        </mxCell>
        <mxCell id="JJXJcLjme7lauxdf09mU-47" value="+Remove(TimeRange): ArrayList&amp;lt;TimeRange&amp;gt;" style="text;strokeColor=none;fillColor=none;align=left;verticalAlign=top;spacingLeft=4;spacingRight=4;overflow=hidden;rotatable=0;points=[[0,0.5],[1,0.5]];portConstraint=eastwest;whiteSpace=wrap;html=1;" parent="EUOa7AyO2jyz6yHNA7Qs-82" vertex="1">
          <mxGeometry y="242" width="390" height="26" as="geometry" />
        </mxCell>
        <mxCell id="JJXJcLjme7lauxdf09mU-48" value="+&lt;u&gt;GetOverlap(TimeRange, TimeRange): TimeRange&lt;/u&gt;" style="text;strokeColor=none;fillColor=none;align=left;verticalAlign=top;spacingLeft=4;spacingRight=4;overflow=hidden;rotatable=0;points=[[0,0.5],[1,0.5]];portConstraint=eastwest;whiteSpace=wrap;html=1;" parent="EUOa7AyO2jyz6yHNA7Qs-82" vertex="1">
          <mxGeometry y="268" width="390" height="26" as="geometry" />
        </mxCell>
        <mxCell id="JJXJcLjme7lauxdf09mU-50" value="+InRange(double): boolean" style="text;strokeColor=none;fillColor=none;align=left;verticalAlign=top;spacingLeft=4;spacingRight=4;overflow=hidden;rotatable=0;points=[[0,0.5],[1,0.5]];portConstraint=eastwest;whiteSpace=wrap;html=1;" parent="EUOa7AyO2jyz6yHNA7Qs-82" vertex="1">
          <mxGeometry y="294" width="390" height="26" as="geometry" />
        </mxCell>
        <mxCell id="JJXJcLjme7lauxdf09mU-51" value="+&lt;u&gt;EncryptWorkingHours(Map&amp;lt;String, ArrayList&amp;lt;TimeRange&amp;gt;&amp;gt;): String&lt;/u&gt;" style="text;strokeColor=none;fillColor=none;align=left;verticalAlign=top;spacingLeft=4;spacingRight=4;overflow=hidden;rotatable=0;points=[[0,0.5],[1,0.5]];portConstraint=eastwest;whiteSpace=wrap;html=1;" parent="EUOa7AyO2jyz6yHNA7Qs-82" vertex="1">
          <mxGeometry y="320" width="390" height="26" as="geometry" />
        </mxCell>
        <mxCell id="JJXJcLjme7lauxdf09mU-52" value="+&lt;u&gt;DecryptWorkingHours(String): Map&amp;lt;String, ArrayList&amp;lt;TimeRange&amp;gt;&amp;gt;&lt;/u&gt;" style="text;strokeColor=none;fillColor=none;align=left;verticalAlign=top;spacingLeft=4;spacingRight=4;overflow=hidden;rotatable=0;points=[[0,0.5],[1,0.5]];portConstraint=eastwest;whiteSpace=wrap;html=1;" parent="EUOa7AyO2jyz6yHNA7Qs-82" vertex="1">
          <mxGeometry y="346" width="390" height="26" as="geometry" />
        </mxCell>
        <mxCell id="JJXJcLjme7lauxdf09mU-53" value="+&lt;u&gt;EncryptTimeRange(Map&amp;lt;String, ArrayList&amp;lt;TimeRange&amp;gt;&amp;gt;): String&lt;/u&gt;" style="text;strokeColor=none;fillColor=none;align=left;verticalAlign=top;spacingLeft=4;spacingRight=4;overflow=hidden;rotatable=0;points=[[0,0.5],[1,0.5]];portConstraint=eastwest;whiteSpace=wrap;html=1;" parent="EUOa7AyO2jyz6yHNA7Qs-82" vertex="1">
          <mxGeometry y="372" width="390" height="26" as="geometry" />
        </mxCell>
        <mxCell id="JJXJcLjme7lauxdf09mU-54" value="+&lt;u&gt;DecryptTimeRange(String): Map&amp;lt;String, ArrayList&amp;lt;TimeRange&amp;gt;&amp;gt;&lt;/u&gt;" style="text;strokeColor=none;fillColor=none;align=left;verticalAlign=top;spacingLeft=4;spacingRight=4;overflow=hidden;rotatable=0;points=[[0,0.5],[1,0.5]];portConstraint=eastwest;whiteSpace=wrap;html=1;" parent="EUOa7AyO2jyz6yHNA7Qs-82" vertex="1">
          <mxGeometry y="398" width="390" height="26" as="geometry" />
        </mxCell>
        <mxCell id="JJXJcLjme7lauxdf09mU-55" value="+GetStart(): double" style="text;strokeColor=none;fillColor=none;align=left;verticalAlign=top;spacingLeft=4;spacingRight=4;overflow=hidden;rotatable=0;points=[[0,0.5],[1,0.5]];portConstraint=eastwest;whiteSpace=wrap;html=1;" parent="EUOa7AyO2jyz6yHNA7Qs-82" vertex="1">
          <mxGeometry y="424" width="390" height="26" as="geometry" />
        </mxCell>
        <mxCell id="JJXJcLjme7lauxdf09mU-56" value="+GetEnd(): double" style="text;strokeColor=none;fillColor=none;align=left;verticalAlign=top;spacingLeft=4;spacingRight=4;overflow=hidden;rotatable=0;points=[[0,0.5],[1,0.5]];portConstraint=eastwest;whiteSpace=wrap;html=1;" parent="EUOa7AyO2jyz6yHNA7Qs-82" vertex="1">
          <mxGeometry y="450" width="390" height="26" as="geometry" />
        </mxCell>
        <mxCell id="JJXJcLjme7lauxdf09mU-57" value="+toString(): String" style="text;strokeColor=none;fillColor=none;align=left;verticalAlign=top;spacingLeft=4;spacingRight=4;overflow=hidden;rotatable=0;points=[[0,0.5],[1,0.5]];portConstraint=eastwest;whiteSpace=wrap;html=1;" parent="EUOa7AyO2jyz6yHNA7Qs-82" vertex="1">
          <mxGeometry y="476" width="390" height="26" as="geometry" />
        </mxCell>
        <mxCell id="EUOa7AyO2jyz6yHNA7Qs-70" value="Admin" style="swimlane;fontStyle=1;align=center;verticalAlign=top;childLayout=stackLayout;horizontal=1;startSize=30;horizontalStack=0;resizeParent=1;resizeParentMax=0;resizeLast=0;collapsible=1;marginBottom=0;whiteSpace=wrap;html=1;fontColor=#ffffff;fillColor=#60a917;strokeColor=#2D7600;" parent="EUOa7AyO2jyz6yHNA7Qs-45" vertex="1">
          <mxGeometry x="250" y="48" width="420" height="312" as="geometry">
            <mxRectangle x="20" y="40" width="70" height="30" as="alternateBounds" />
          </mxGeometry>
        </mxCell>
        <mxCell id="EUOa7AyO2jyz6yHNA7Qs-71" value="-role: String" style="text;strokeColor=none;fillColor=none;align=left;verticalAlign=top;spacingLeft=4;spacingRight=4;overflow=hidden;rotatable=0;points=[[0,0.5],[1,0.5]];portConstraint=eastwest;whiteSpace=wrap;html=1;fontColor=#000000;" parent="EUOa7AyO2jyz6yHNA7Qs-70" vertex="1">
          <mxGeometry y="30" width="420" height="26" as="geometry" />
        </mxCell>
        <mxCell id="EUOa7AyO2jyz6yHNA7Qs-144" value="-workingHours: Hours" style="text;strokeColor=none;fillColor=none;align=left;verticalAlign=top;spacingLeft=4;spacingRight=4;overflow=hidden;rotatable=0;points=[[0,0.5],[1,0.5]];portConstraint=eastwest;whiteSpace=wrap;html=1;fontColor=#000000;" parent="EUOa7AyO2jyz6yHNA7Qs-70" vertex="1">
          <mxGeometry y="56" width="420" height="26" as="geometry" />
        </mxCell>
        <mxCell id="EUOa7AyO2jyz6yHNA7Qs-72" value="" style="line;strokeWidth=1;fillColor=none;align=left;verticalAlign=middle;spacingTop=-1;spacingLeft=3;spacingRight=3;rotatable=0;labelPosition=right;points=[];portConstraint=eastwest;strokeColor=inherit;fontColor=#000000;" parent="EUOa7AyO2jyz6yHNA7Qs-70" vertex="1">
          <mxGeometry y="82" width="420" height="8" as="geometry" />
        </mxCell>
        <mxCell id="EUOa7AyO2jyz6yHNA7Qs-73" value="+Admin(String, String, String, MyDate, Gender, String, Hours)" style="text;strokeColor=none;fillColor=none;align=left;verticalAlign=top;spacingLeft=4;spacingRight=4;overflow=hidden;rotatable=0;points=[[0,0.5],[1,0.5]];portConstraint=eastwest;whiteSpace=wrap;html=1;fontColor=#000000;" parent="EUOa7AyO2jyz6yHNA7Qs-70" vertex="1">
          <mxGeometry y="90" width="420" height="26" as="geometry" />
        </mxCell>
        <mxCell id="EUOa7AyO2jyz6yHNA7Qs-285" value="+&lt;u&gt;RegisterAdmin(String, String, String, MyDate, Gender, String, Hours): void&lt;/u&gt;" style="text;strokeColor=none;fillColor=none;align=left;verticalAlign=top;spacingLeft=4;spacingRight=4;overflow=hidden;rotatable=0;points=[[0,0.5],[1,0.5]];portConstraint=eastwest;whiteSpace=wrap;html=1;fontColor=#000000;" parent="EUOa7AyO2jyz6yHNA7Qs-70" vertex="1">
          <mxGeometry y="116" width="420" height="28" as="geometry" />
        </mxCell>
        <mxCell id="EUOa7AyO2jyz6yHNA7Qs-288" value="+&lt;u&gt;FindAdmin(ArrayList&amp;lt;Admin&amp;gt;, String): Admin&lt;/u&gt;" style="text;strokeColor=none;fillColor=none;align=left;verticalAlign=top;spacingLeft=4;spacingRight=4;overflow=hidden;rotatable=0;points=[[0,0.5],[1,0.5]];portConstraint=eastwest;whiteSpace=wrap;html=1;fontColor=#000000;" parent="EUOa7AyO2jyz6yHNA7Qs-70" vertex="1">
          <mxGeometry y="144" width="420" height="28" as="geometry" />
        </mxCell>
        <mxCell id="EUOa7AyO2jyz6yHNA7Qs-289" value="+CreateRoom(Hours, String, int): void" style="text;strokeColor=none;fillColor=none;align=left;verticalAlign=top;spacingLeft=4;spacingRight=4;overflow=hidden;rotatable=0;points=[[0,0.5],[1,0.5]];portConstraint=eastwest;whiteSpace=wrap;html=1;fontColor=#000000;" parent="EUOa7AyO2jyz6yHNA7Qs-70" vertex="1">
          <mxGeometry y="172" width="420" height="28" as="geometry" />
        </mxCell>
        <mxCell id="EUOa7AyO2jyz6yHNA7Qs-291" value="+DeleteRoom(Room): void" style="text;strokeColor=none;fillColor=none;align=left;verticalAlign=top;spacingLeft=4;spacingRight=4;overflow=hidden;rotatable=0;points=[[0,0.5],[1,0.5]];portConstraint=eastwest;whiteSpace=wrap;html=1;fontColor=#000000;" parent="EUOa7AyO2jyz6yHNA7Qs-70" vertex="1">
          <mxGeometry y="200" width="420" height="28" as="geometry" />
        </mxCell>
        <mxCell id="EUOa7AyO2jyz6yHNA7Qs-292" value="+AddCategory(String): void" style="text;strokeColor=none;fillColor=none;align=left;verticalAlign=top;spacingLeft=4;spacingRight=4;overflow=hidden;rotatable=0;points=[[0,0.5],[1,0.5]];portConstraint=eastwest;whiteSpace=wrap;html=1;fontColor=#000000;" parent="EUOa7AyO2jyz6yHNA7Qs-70" vertex="1">
          <mxGeometry y="228" width="420" height="28" as="geometry" />
        </mxCell>
        <mxCell id="EUOa7AyO2jyz6yHNA7Qs-290" value="+RemoveCategory(String): void" style="text;strokeColor=none;fillColor=none;align=left;verticalAlign=top;spacingLeft=4;spacingRight=4;overflow=hidden;rotatable=0;points=[[0,0.5],[1,0.5]];portConstraint=eastwest;whiteSpace=wrap;html=1;fontColor=#000000;" parent="EUOa7AyO2jyz6yHNA7Qs-70" vertex="1">
          <mxGeometry y="256" width="420" height="28" as="geometry" />
        </mxCell>
        <mxCell id="EUOa7AyO2jyz6yHNA7Qs-293" value="+toString(): String" style="text;strokeColor=none;fillColor=none;align=left;verticalAlign=top;spacingLeft=4;spacingRight=4;overflow=hidden;rotatable=0;points=[[0,0.5],[1,0.5]];portConstraint=eastwest;whiteSpace=wrap;html=1;fontColor=#000000;" parent="EUOa7AyO2jyz6yHNA7Qs-70" vertex="1">
          <mxGeometry y="284" width="420" height="28" as="geometry" />
        </mxCell>
        <mxCell id="vqxXQO5X_f1XpehPMIfq-35" style="edgeStyle=orthogonalEdgeStyle;rounded=0;orthogonalLoop=1;jettySize=auto;html=1;entryX=0;entryY=1;entryDx=0;entryDy=0;endArrow=none;startFill=0;" parent="EUOa7AyO2jyz6yHNA7Qs-45" source="EUOa7AyO2jyz6yHNA7Qs-78" target="EUOa7AyO2jyz6yHNA7Qs-226" edge="1">
          <mxGeometry relative="1" as="geometry">
            <Array as="points">
              <mxPoint x="410" y="2020" />
              <mxPoint x="410" y="2020" />
            </Array>
          </mxGeometry>
        </mxCell>
        <mxCell id="EUOa7AyO2jyz6yHNA7Qs-78" value="&lt;i&gt;Database&lt;/i&gt;" style="swimlane;fontStyle=1;align=center;verticalAlign=top;childLayout=stackLayout;horizontal=1;startSize=26;horizontalStack=0;resizeParent=1;resizeParentMax=0;resizeLast=0;collapsible=1;marginBottom=0;whiteSpace=wrap;html=1;fontColor=#ffffff;fillColor=#60a917;strokeColor=#2D7600;" parent="EUOa7AyO2jyz6yHNA7Qs-45" vertex="1">
          <mxGeometry x="75" y="1760" width="310" height="532" as="geometry">
            <mxRectangle x="140" y="1130" width="140" height="30" as="alternateBounds" />
          </mxGeometry>
        </mxCell>
        <mxCell id="EUOa7AyO2jyz6yHNA7Qs-79" value="-&lt;u&gt;URL: String&lt;/u&gt;" style="text;strokeColor=none;fillColor=none;align=left;verticalAlign=top;spacingLeft=4;spacingRight=4;overflow=hidden;rotatable=0;points=[[0,0.5],[1,0.5]];portConstraint=eastwest;whiteSpace=wrap;html=1;fontColor=#000000;" parent="EUOa7AyO2jyz6yHNA7Qs-78" vertex="1">
          <mxGeometry y="26" width="310" height="26" as="geometry" />
        </mxCell>
        <mxCell id="EUOa7AyO2jyz6yHNA7Qs-148" value="&lt;span style=&quot;forced-color-adjust: none; font-family: Helvetica; font-size: 12px; font-style: normal; font-variant-ligatures: normal; font-variant-caps: normal; font-weight: 400; letter-spacing: normal; orphans: 2; text-align: left; text-indent: 0px; text-transform: none; widows: 2; word-spacing: 0px; -webkit-text-stroke-width: 0px; white-space: normal;&quot;&gt;&lt;font style=&quot;&quot;&gt;-&lt;u style=&quot;&quot;&gt;USER: String&lt;/u&gt;&lt;/font&gt;&lt;/span&gt;" style="text;whiteSpace=wrap;html=1;fontColor=#000000;" parent="EUOa7AyO2jyz6yHNA7Qs-78" vertex="1">
          <mxGeometry y="52" width="310" height="28" as="geometry" />
        </mxCell>
        <mxCell id="EUOa7AyO2jyz6yHNA7Qs-149" value="&lt;span style=&quot;forced-color-adjust: none; font-family: Helvetica; font-size: 12px; font-style: normal; font-variant-ligatures: normal; font-variant-caps: normal; font-weight: 400; letter-spacing: normal; orphans: 2; text-align: left; text-indent: 0px; text-transform: none; widows: 2; word-spacing: 0px; -webkit-text-stroke-width: 0px; white-space: normal;&quot;&gt;&lt;font style=&quot;&quot;&gt;-&lt;u style=&quot;&quot;&gt;PASSWORD: String&lt;/u&gt;&lt;/font&gt;&lt;/span&gt;" style="text;whiteSpace=wrap;html=1;fontColor=#000000;" parent="EUOa7AyO2jyz6yHNA7Qs-78" vertex="1">
          <mxGeometry y="80" width="310" height="30" as="geometry" />
        </mxCell>
        <mxCell id="EUOa7AyO2jyz6yHNA7Qs-146" value="-&lt;u&gt;con: Connection&lt;/u&gt;" style="text;strokeColor=none;fillColor=none;align=left;verticalAlign=top;spacingLeft=4;spacingRight=4;overflow=hidden;rotatable=0;points=[[0,0.5],[1,0.5]];portConstraint=eastwest;whiteSpace=wrap;html=1;fontColor=#000000;" parent="EUOa7AyO2jyz6yHNA7Qs-78" vertex="1">
          <mxGeometry y="110" width="310" height="26" as="geometry" />
        </mxCell>
        <mxCell id="EUOa7AyO2jyz6yHNA7Qs-150" value="-&lt;u&gt;stat: Statement&lt;/u&gt;" style="text;strokeColor=none;fillColor=none;align=left;verticalAlign=top;spacingLeft=4;spacingRight=4;overflow=hidden;rotatable=0;points=[[0,0.5],[1,0.5]];portConstraint=eastwest;whiteSpace=wrap;html=1;fontColor=#000000;" parent="EUOa7AyO2jyz6yHNA7Qs-78" vertex="1">
          <mxGeometry y="136" width="310" height="26" as="geometry" />
        </mxCell>
        <mxCell id="EUOa7AyO2jyz6yHNA7Qs-151" value="-&lt;u&gt;gson: Gson&lt;/u&gt;" style="text;strokeColor=none;fillColor=none;align=left;verticalAlign=top;spacingLeft=4;spacingRight=4;overflow=hidden;rotatable=0;points=[[0,0.5],[1,0.5]];portConstraint=eastwest;whiteSpace=wrap;html=1;fontColor=#000000;" parent="EUOa7AyO2jyz6yHNA7Qs-78" vertex="1">
          <mxGeometry y="162" width="310" height="26" as="geometry" />
        </mxCell>
        <mxCell id="EUOa7AyO2jyz6yHNA7Qs-80" value="" style="line;strokeWidth=1;fillColor=none;align=left;verticalAlign=middle;spacingTop=-1;spacingLeft=3;spacingRight=3;rotatable=0;labelPosition=right;points=[];portConstraint=eastwest;strokeColor=inherit;fontColor=#000000;" parent="EUOa7AyO2jyz6yHNA7Qs-78" vertex="1">
          <mxGeometry y="188" width="310" height="8" as="geometry" />
        </mxCell>
        <mxCell id="EUOa7AyO2jyz6yHNA7Qs-301" value="+&lt;u&gt;Connect(): void&lt;/u&gt;" style="text;strokeColor=none;fillColor=none;align=left;verticalAlign=top;spacingLeft=4;spacingRight=4;overflow=hidden;rotatable=0;points=[[0,0.5],[1,0.5]];portConstraint=eastwest;whiteSpace=wrap;html=1;fontColor=#000000;" parent="EUOa7AyO2jyz6yHNA7Qs-78" vertex="1">
          <mxGeometry y="196" width="310" height="28" as="geometry" />
        </mxCell>
        <mxCell id="EUOa7AyO2jyz6yHNA7Qs-296" value="+&lt;u&gt;CloseConnection(): void&lt;/u&gt;" style="text;strokeColor=none;fillColor=none;align=left;verticalAlign=top;spacingLeft=4;spacingRight=4;overflow=hidden;rotatable=0;points=[[0,0.5],[1,0.5]];portConstraint=eastwest;whiteSpace=wrap;html=1;fontColor=#000000;" parent="EUOa7AyO2jyz6yHNA7Qs-78" vertex="1">
          <mxGeometry y="224" width="310" height="28" as="geometry" />
        </mxCell>
        <mxCell id="EUOa7AyO2jyz6yHNA7Qs-310" value="+&lt;u&gt;EncryptTickets(Map&amp;lt;Integer, Integer&amp;gt;): StringBuilder&lt;/u&gt;" style="text;strokeColor=none;fillColor=none;align=left;verticalAlign=top;spacingLeft=4;spacingRight=4;overflow=hidden;rotatable=0;points=[[0,0.5],[1,0.5]];portConstraint=eastwest;whiteSpace=wrap;html=1;fontColor=#000000;" parent="EUOa7AyO2jyz6yHNA7Qs-78" vertex="1">
          <mxGeometry y="252" width="310" height="28" as="geometry" />
        </mxCell>
        <mxCell id="EUOa7AyO2jyz6yHNA7Qs-309" value="+&lt;u&gt;DecryptTickets(&lt;/u&gt;&lt;u&gt;StringBuilder&lt;/u&gt;&lt;u&gt;):&amp;nbsp;&lt;/u&gt;&lt;u&gt;Map&amp;lt;Integer, Integer&amp;gt;&lt;/u&gt;" style="text;strokeColor=none;fillColor=none;align=left;verticalAlign=top;spacingLeft=4;spacingRight=4;overflow=hidden;rotatable=0;points=[[0,0.5],[1,0.5]];portConstraint=eastwest;whiteSpace=wrap;html=1;fontColor=#000000;" parent="EUOa7AyO2jyz6yHNA7Qs-78" vertex="1">
          <mxGeometry y="280" width="310" height="28" as="geometry" />
        </mxCell>
        <mxCell id="EUOa7AyO2jyz6yHNA7Qs-308" value="+&lt;u&gt;GetData(String): ResultSet&lt;/u&gt;" style="text;strokeColor=none;fillColor=none;align=left;verticalAlign=top;spacingLeft=4;spacingRight=4;overflow=hidden;rotatable=0;points=[[0,0.5],[1,0.5]];portConstraint=eastwest;whiteSpace=wrap;html=1;fontColor=#000000;" parent="EUOa7AyO2jyz6yHNA7Qs-78" vertex="1">
          <mxGeometry y="308" width="310" height="28" as="geometry" />
        </mxCell>
        <mxCell id="EUOa7AyO2jyz6yHNA7Qs-307" value="+&lt;u&gt;Execute(String): void&lt;/u&gt;" style="text;strokeColor=none;fillColor=none;align=left;verticalAlign=top;spacingLeft=4;spacingRight=4;overflow=hidden;rotatable=0;points=[[0,0.5],[1,0.5]];portConstraint=eastwest;whiteSpace=wrap;html=1;fontColor=#000000;" parent="EUOa7AyO2jyz6yHNA7Qs-78" vertex="1">
          <mxGeometry y="336" width="310" height="28" as="geometry" />
        </mxCell>
        <mxCell id="EUOa7AyO2jyz6yHNA7Qs-306" value="+&lt;u&gt;GetAdmins(): ArrayList&amp;lt;Admin&amp;gt;&lt;/u&gt;" style="text;strokeColor=none;fillColor=none;align=left;verticalAlign=top;spacingLeft=4;spacingRight=4;overflow=hidden;rotatable=0;points=[[0,0.5],[1,0.5]];portConstraint=eastwest;whiteSpace=wrap;html=1;fontColor=#000000;" parent="EUOa7AyO2jyz6yHNA7Qs-78" vertex="1">
          <mxGeometry y="364" width="310" height="28" as="geometry" />
        </mxCell>
        <mxCell id="EUOa7AyO2jyz6yHNA7Qs-305" value="+&lt;u&gt;GetOrganizers(): ArrayList&amp;lt;Organizer&amp;gt;&lt;/u&gt;" style="text;strokeColor=none;fillColor=none;align=left;verticalAlign=top;spacingLeft=4;spacingRight=4;overflow=hidden;rotatable=0;points=[[0,0.5],[1,0.5]];portConstraint=eastwest;whiteSpace=wrap;html=1;fontColor=#000000;" parent="EUOa7AyO2jyz6yHNA7Qs-78" vertex="1">
          <mxGeometry y="392" width="310" height="28" as="geometry" />
        </mxCell>
        <mxCell id="EUOa7AyO2jyz6yHNA7Qs-304" value="+&lt;u&gt;GetAttendees(): ArrayList&amp;lt;Attendee&amp;gt;&lt;/u&gt;" style="text;strokeColor=none;fillColor=none;align=left;verticalAlign=top;spacingLeft=4;spacingRight=4;overflow=hidden;rotatable=0;points=[[0,0.5],[1,0.5]];portConstraint=eastwest;whiteSpace=wrap;html=1;fontColor=#000000;" parent="EUOa7AyO2jyz6yHNA7Qs-78" vertex="1">
          <mxGeometry y="420" width="310" height="28" as="geometry" />
        </mxCell>
        <mxCell id="EUOa7AyO2jyz6yHNA7Qs-303" value="+&lt;u&gt;GetEvents(): ArrayList&amp;lt;Event&amp;gt;&lt;/u&gt;" style="text;strokeColor=none;fillColor=none;align=left;verticalAlign=top;spacingLeft=4;spacingRight=4;overflow=hidden;rotatable=0;points=[[0,0.5],[1,0.5]];portConstraint=eastwest;whiteSpace=wrap;html=1;fontColor=#000000;" parent="EUOa7AyO2jyz6yHNA7Qs-78" vertex="1">
          <mxGeometry y="448" width="310" height="28" as="geometry" />
        </mxCell>
        <mxCell id="EUOa7AyO2jyz6yHNA7Qs-302" value="+&lt;u&gt;GetRooms(): ArrayList&amp;lt;Room&amp;gt;&lt;/u&gt;" style="text;strokeColor=none;fillColor=none;align=left;verticalAlign=top;spacingLeft=4;spacingRight=4;overflow=hidden;rotatable=0;points=[[0,0.5],[1,0.5]];portConstraint=eastwest;whiteSpace=wrap;html=1;fontColor=#000000;" parent="EUOa7AyO2jyz6yHNA7Qs-78" vertex="1">
          <mxGeometry y="476" width="310" height="28" as="geometry" />
        </mxCell>
        <mxCell id="EUOa7AyO2jyz6yHNA7Qs-311" value="+&lt;u&gt;GetCategories(): ArrayList&amp;lt;Category&amp;gt;&lt;/u&gt;" style="text;strokeColor=none;fillColor=none;align=left;verticalAlign=top;spacingLeft=4;spacingRight=4;overflow=hidden;rotatable=0;points=[[0,0.5],[1,0.5]];portConstraint=eastwest;whiteSpace=wrap;html=1;fontColor=#000000;" parent="EUOa7AyO2jyz6yHNA7Qs-78" vertex="1">
          <mxGeometry y="504" width="310" height="28" as="geometry" />
        </mxCell>
        <mxCell id="EUOa7AyO2jyz6yHNA7Qs-118" value="&amp;lt;&amp;lt;enum&amp;gt;&amp;gt;&lt;div&gt;DataType&lt;/div&gt;" style="swimlane;fontStyle=1;align=center;verticalAlign=top;childLayout=stackLayout;horizontal=1;startSize=40;horizontalStack=0;resizeParent=1;resizeParentMax=0;resizeLast=0;collapsible=1;marginBottom=0;whiteSpace=wrap;html=1;fontColor=#ffffff;fillColor=#60a917;strokeColor=#2D7600;" parent="EUOa7AyO2jyz6yHNA7Qs-45" vertex="1">
          <mxGeometry x="490" y="1740" width="160" height="628" as="geometry">
            <mxRectangle x="690" y="460" width="140" height="40" as="alternateBounds" />
          </mxGeometry>
        </mxCell>
        <mxCell id="EUOa7AyO2jyz6yHNA7Qs-210" value="USER" style="html=1;align=left;spacing=0;spacingLeft=8;verticalAlign=middle;strokeColor=none;fillColor=none;whiteSpace=wrap;" parent="EUOa7AyO2jyz6yHNA7Qs-118" vertex="1">
          <mxGeometry y="40" width="160" height="16" as="geometry" />
        </mxCell>
        <mxCell id="EUOa7AyO2jyz6yHNA7Qs-211" value="ROOM" style="html=1;align=left;spacing=0;spacingLeft=8;verticalAlign=middle;strokeColor=none;fillColor=none;whiteSpace=wrap;" parent="EUOa7AyO2jyz6yHNA7Qs-118" vertex="1">
          <mxGeometry y="56" width="160" height="16" as="geometry" />
        </mxCell>
        <mxCell id="EUOa7AyO2jyz6yHNA7Qs-238" value="TITLE" style="html=1;align=left;spacing=0;spacingLeft=8;verticalAlign=middle;strokeColor=none;fillColor=none;whiteSpace=wrap;" parent="EUOa7AyO2jyz6yHNA7Qs-118" vertex="1">
          <mxGeometry y="72" width="160" height="16" as="geometry" />
        </mxCell>
        <mxCell id="EUOa7AyO2jyz6yHNA7Qs-237" value="TICKETS" style="html=1;align=left;spacing=0;spacingLeft=8;verticalAlign=middle;strokeColor=none;fillColor=none;whiteSpace=wrap;" parent="EUOa7AyO2jyz6yHNA7Qs-118" vertex="1">
          <mxGeometry y="88" width="160" height="16" as="geometry" />
        </mxCell>
        <mxCell id="EUOa7AyO2jyz6yHNA7Qs-236" value="DATE" style="html=1;align=left;spacing=0;spacingLeft=8;verticalAlign=middle;strokeColor=none;fillColor=none;whiteSpace=wrap;" parent="EUOa7AyO2jyz6yHNA7Qs-118" vertex="1">
          <mxGeometry y="104" width="160" height="16" as="geometry" />
        </mxCell>
        <mxCell id="EUOa7AyO2jyz6yHNA7Qs-235" value="INTERESTS" style="html=1;align=left;spacing=0;spacingLeft=8;verticalAlign=middle;strokeColor=none;fillColor=none;whiteSpace=wrap;" parent="EUOa7AyO2jyz6yHNA7Qs-118" vertex="1">
          <mxGeometry y="120" width="160" height="16" as="geometry" />
        </mxCell>
        <mxCell id="EUOa7AyO2jyz6yHNA7Qs-234" value="ROLE" style="html=1;align=left;spacing=0;spacingLeft=8;verticalAlign=middle;strokeColor=none;fillColor=none;whiteSpace=wrap;" parent="EUOa7AyO2jyz6yHNA7Qs-118" vertex="1">
          <mxGeometry y="136" width="160" height="16" as="geometry" />
        </mxCell>
        <mxCell id="EUOa7AyO2jyz6yHNA7Qs-233" value="TYPE" style="html=1;align=left;spacing=0;spacingLeft=8;verticalAlign=middle;strokeColor=none;fillColor=none;whiteSpace=wrap;" parent="EUOa7AyO2jyz6yHNA7Qs-118" vertex="1">
          <mxGeometry y="152" width="160" height="16" as="geometry" />
        </mxCell>
        <mxCell id="EUOa7AyO2jyz6yHNA7Qs-232" value="DAY" style="html=1;align=left;spacing=0;spacingLeft=8;verticalAlign=middle;strokeColor=none;fillColor=none;whiteSpace=wrap;" parent="EUOa7AyO2jyz6yHNA7Qs-118" vertex="1">
          <mxGeometry y="168" width="160" height="16" as="geometry" />
        </mxCell>
        <mxCell id="EUOa7AyO2jyz6yHNA7Qs-231" value="TIME_RANGE" style="html=1;align=left;spacing=0;spacingLeft=8;verticalAlign=middle;strokeColor=none;fillColor=none;whiteSpace=wrap;" parent="EUOa7AyO2jyz6yHNA7Qs-118" vertex="1">
          <mxGeometry y="184" width="160" height="16" as="geometry" />
        </mxCell>
        <mxCell id="EUOa7AyO2jyz6yHNA7Qs-230" value="NAME" style="html=1;align=left;spacing=0;spacingLeft=8;verticalAlign=middle;strokeColor=none;fillColor=none;whiteSpace=wrap;" parent="EUOa7AyO2jyz6yHNA7Qs-118" vertex="1">
          <mxGeometry y="200" width="160" height="16" as="geometry" />
        </mxCell>
        <mxCell id="EUOa7AyO2jyz6yHNA7Qs-229" value="AVAILABLE_TIME" style="html=1;align=left;spacing=0;spacingLeft=8;verticalAlign=middle;strokeColor=none;fillColor=none;whiteSpace=wrap;" parent="EUOa7AyO2jyz6yHNA7Qs-118" vertex="1">
          <mxGeometry y="216" width="160" height="16" as="geometry" />
        </mxCell>
        <mxCell id="EUOa7AyO2jyz6yHNA7Qs-228" value="EVENT_ID" style="html=1;align=left;spacing=0;spacingLeft=8;verticalAlign=middle;strokeColor=none;fillColor=none;whiteSpace=wrap;" parent="EUOa7AyO2jyz6yHNA7Qs-118" vertex="1">
          <mxGeometry y="232" width="160" height="16" as="geometry" />
        </mxCell>
        <mxCell id="EUOa7AyO2jyz6yHNA7Qs-227" value="ROOM_ID" style="html=1;align=left;spacing=0;spacingLeft=8;verticalAlign=middle;strokeColor=none;fillColor=none;whiteSpace=wrap;" parent="EUOa7AyO2jyz6yHNA7Qs-118" vertex="1">
          <mxGeometry y="248" width="160" height="16" as="geometry" />
        </mxCell>
        <mxCell id="EUOa7AyO2jyz6yHNA7Qs-226" value="USER_ID" style="html=1;align=left;spacing=0;spacingLeft=8;verticalAlign=middle;strokeColor=none;fillColor=none;whiteSpace=wrap;" parent="EUOa7AyO2jyz6yHNA7Qs-118" vertex="1">
          <mxGeometry y="264" width="160" height="16" as="geometry" />
        </mxCell>
        <mxCell id="EUOa7AyO2jyz6yHNA7Qs-225" value="BALANCE" style="html=1;align=left;spacing=0;spacingLeft=8;verticalAlign=middle;strokeColor=none;fillColor=none;whiteSpace=wrap;" parent="EUOa7AyO2jyz6yHNA7Qs-118" vertex="1">
          <mxGeometry y="280" width="160" height="16" as="geometry" />
        </mxCell>
        <mxCell id="EUOa7AyO2jyz6yHNA7Qs-224" value="PRICE" style="html=1;align=left;spacing=0;spacingLeft=8;verticalAlign=middle;strokeColor=none;fillColor=none;whiteSpace=wrap;" parent="EUOa7AyO2jyz6yHNA7Qs-118" vertex="1">
          <mxGeometry y="296" width="160" height="16" as="geometry" />
        </mxCell>
        <mxCell id="EUOa7AyO2jyz6yHNA7Qs-223" value="CREATE_TIME" style="html=1;align=left;spacing=0;spacingLeft=8;verticalAlign=middle;strokeColor=none;fillColor=none;whiteSpace=wrap;" parent="EUOa7AyO2jyz6yHNA7Qs-118" vertex="1">
          <mxGeometry y="312" width="160" height="16" as="geometry" />
        </mxCell>
        <mxCell id="EUOa7AyO2jyz6yHNA7Qs-222" value="BIRTH_DAY" style="html=1;align=left;spacing=0;spacingLeft=8;verticalAlign=middle;strokeColor=none;fillColor=none;whiteSpace=wrap;" parent="EUOa7AyO2jyz6yHNA7Qs-118" vertex="1">
          <mxGeometry y="328" width="160" height="16" as="geometry" />
        </mxCell>
        <mxCell id="EUOa7AyO2jyz6yHNA7Qs-221" value="BIRTH_MONTH" style="html=1;align=left;spacing=0;spacingLeft=8;verticalAlign=middle;strokeColor=none;fillColor=none;whiteSpace=wrap;" parent="EUOa7AyO2jyz6yHNA7Qs-118" vertex="1">
          <mxGeometry y="344" width="160" height="16" as="geometry" />
        </mxCell>
        <mxCell id="EUOa7AyO2jyz6yHNA7Qs-220" value="BIRTH_YEAR" style="html=1;align=left;spacing=0;spacingLeft=8;verticalAlign=middle;strokeColor=none;fillColor=none;whiteSpace=wrap;" parent="EUOa7AyO2jyz6yHNA7Qs-118" vertex="1">
          <mxGeometry y="360" width="160" height="16" as="geometry" />
        </mxCell>
        <mxCell id="EUOa7AyO2jyz6yHNA7Qs-219" value="GENDER" style="html=1;align=left;spacing=0;spacingLeft=8;verticalAlign=middle;strokeColor=none;fillColor=none;whiteSpace=wrap;" parent="EUOa7AyO2jyz6yHNA7Qs-118" vertex="1">
          <mxGeometry y="376" width="160" height="16" as="geometry" />
        </mxCell>
        <mxCell id="EUOa7AyO2jyz6yHNA7Qs-218" value="PASSWORD" style="html=1;align=left;spacing=0;spacingLeft=8;verticalAlign=middle;strokeColor=none;fillColor=none;whiteSpace=wrap;" parent="EUOa7AyO2jyz6yHNA7Qs-118" vertex="1">
          <mxGeometry y="392" width="160" height="16" as="geometry" />
        </mxCell>
        <mxCell id="EUOa7AyO2jyz6yHNA7Qs-217" value="EMAIL" style="html=1;align=left;spacing=0;spacingLeft=8;verticalAlign=middle;strokeColor=none;fillColor=none;whiteSpace=wrap;" parent="EUOa7AyO2jyz6yHNA7Qs-118" vertex="1">
          <mxGeometry y="408" width="160" height="16" as="geometry" />
        </mxCell>
        <mxCell id="EUOa7AyO2jyz6yHNA7Qs-216" value="USERNAME" style="html=1;align=left;spacing=0;spacingLeft=8;verticalAlign=middle;strokeColor=none;fillColor=none;whiteSpace=wrap;" parent="EUOa7AyO2jyz6yHNA7Qs-118" vertex="1">
          <mxGeometry y="424" width="160" height="16" as="geometry" />
        </mxCell>
        <mxCell id="EUOa7AyO2jyz6yHNA7Qs-215" value="ID" style="html=1;align=left;spacing=0;spacingLeft=8;verticalAlign=middle;strokeColor=none;fillColor=none;whiteSpace=wrap;" parent="EUOa7AyO2jyz6yHNA7Qs-118" vertex="1">
          <mxGeometry y="440" width="160" height="16" as="geometry" />
        </mxCell>
        <mxCell id="EUOa7AyO2jyz6yHNA7Qs-214" value="WALLET" style="html=1;align=left;spacing=0;spacingLeft=8;verticalAlign=middle;strokeColor=none;fillColor=none;whiteSpace=wrap;" parent="EUOa7AyO2jyz6yHNA7Qs-118" vertex="1">
          <mxGeometry y="456" width="160" height="16" as="geometry" />
        </mxCell>
        <mxCell id="EUOa7AyO2jyz6yHNA7Qs-213" value="EVENT" style="html=1;align=left;spacing=0;spacingLeft=8;verticalAlign=middle;strokeColor=none;fillColor=none;whiteSpace=wrap;" parent="EUOa7AyO2jyz6yHNA7Qs-118" vertex="1">
          <mxGeometry y="472" width="160" height="16" as="geometry" />
        </mxCell>
        <mxCell id="EUOa7AyO2jyz6yHNA7Qs-212" value="CATEGORY" style="html=1;align=left;spacing=0;spacingLeft=8;verticalAlign=middle;strokeColor=none;fillColor=none;whiteSpace=wrap;" parent="EUOa7AyO2jyz6yHNA7Qs-118" vertex="1">
          <mxGeometry y="488" width="160" height="16" as="geometry" />
        </mxCell>
        <mxCell id="nFGXx0vNRWT5Ij3B57wI-2" value="LOCATION" style="html=1;align=left;spacing=0;spacingLeft=8;verticalAlign=middle;strokeColor=none;fillColor=none;whiteSpace=wrap;" parent="EUOa7AyO2jyz6yHNA7Qs-118" vertex="1">
          <mxGeometry y="504" width="160" height="16" as="geometry" />
        </mxCell>
        <mxCell id="nFGXx0vNRWT5Ij3B57wI-4" value="MAX" style="html=1;align=left;spacing=0;spacingLeft=8;verticalAlign=middle;strokeColor=none;fillColor=none;whiteSpace=wrap;" parent="EUOa7AyO2jyz6yHNA7Qs-118" vertex="1">
          <mxGeometry y="520" width="160" height="16" as="geometry" />
        </mxCell>
        <mxCell id="EUOa7AyO2jyz6yHNA7Qs-239" value="" style="line;strokeWidth=1;fillColor=none;align=left;verticalAlign=middle;spacingTop=-1;spacingLeft=3;spacingRight=3;rotatable=0;labelPosition=right;points=[];portConstraint=eastwest;strokeColor=inherit;" parent="EUOa7AyO2jyz6yHNA7Qs-118" vertex="1">
          <mxGeometry y="536" width="160" height="10" as="geometry" />
        </mxCell>
        <mxCell id="EUOa7AyO2jyz6yHNA7Qs-284" value="-_TYPE: String" style="text;strokeColor=none;fillColor=none;align=left;verticalAlign=top;spacingLeft=4;spacingRight=4;overflow=hidden;rotatable=0;points=[[0,0.5],[1,0.5]];portConstraint=eastwest;whiteSpace=wrap;html=1;" parent="EUOa7AyO2jyz6yHNA7Qs-118" vertex="1">
          <mxGeometry y="546" width="160" height="20" as="geometry" />
        </mxCell>
        <mxCell id="EUOa7AyO2jyz6yHNA7Qs-120" value="" style="line;strokeWidth=1;fillColor=none;align=left;verticalAlign=middle;spacingTop=-1;spacingLeft=3;spacingRight=3;rotatable=0;labelPosition=right;points=[];portConstraint=eastwest;strokeColor=inherit;" parent="EUOa7AyO2jyz6yHNA7Qs-118" vertex="1">
          <mxGeometry y="566" width="160" height="10" as="geometry" />
        </mxCell>
        <mxCell id="EUOa7AyO2jyz6yHNA7Qs-67" value="DataType(String)" style="text;strokeColor=none;fillColor=none;align=left;verticalAlign=top;spacingLeft=4;spacingRight=4;overflow=hidden;rotatable=0;points=[[0,0.5],[1,0.5]];portConstraint=eastwest;whiteSpace=wrap;html=1;" parent="EUOa7AyO2jyz6yHNA7Qs-118" vertex="1">
          <mxGeometry y="576" width="160" height="24" as="geometry" />
        </mxCell>
        <mxCell id="EUOa7AyO2jyz6yHNA7Qs-121" value="+toString(): String" style="text;strokeColor=none;fillColor=none;align=left;verticalAlign=top;spacingLeft=4;spacingRight=4;overflow=hidden;rotatable=0;points=[[0,0.5],[1,0.5]];portConstraint=eastwest;whiteSpace=wrap;html=1;" parent="EUOa7AyO2jyz6yHNA7Qs-118" vertex="1">
          <mxGeometry y="600" width="160" height="28" as="geometry" />
        </mxCell>
        <mxCell id="vqxXQO5X_f1XpehPMIfq-44" style="edgeStyle=orthogonalEdgeStyle;rounded=0;orthogonalLoop=1;jettySize=auto;html=1;exitX=1;exitY=0.5;exitDx=0;exitDy=0;entryX=0.495;entryY=1.036;entryDx=0;entryDy=0;entryPerimeter=0;endArrow=none;startFill=0;jumpStyle=arc;jumpSize=15;" parent="EUOa7AyO2jyz6yHNA7Qs-45" source="EUOa7AyO2jyz6yHNA7Qs-79" target="EUOa7AyO2jyz6yHNA7Qs-293" edge="1">
          <mxGeometry relative="1" as="geometry" />
        </mxCell>
        <mxCell id="vqxXQO5X_f1XpehPMIfq-52" style="edgeStyle=orthogonalEdgeStyle;rounded=0;orthogonalLoop=1;jettySize=auto;html=1;exitX=-0.002;exitY=-0.069;exitDx=0;exitDy=0;entryX=1;entryY=0.5;entryDx=0;entryDy=0;exitPerimeter=0;endSize=25;endArrow=diamondThin;endFill=0;" parent="EUOa7AyO2jyz6yHNA7Qs-45" source="EUOa7AyO2jyz6yHNA7Qs-280" target="EUOa7AyO2jyz6yHNA7Qs-285" edge="1">
          <mxGeometry relative="1" as="geometry" />
        </mxCell>
        <mxCell id="vqxXQO5X_f1XpehPMIfq-53" style="edgeStyle=orthogonalEdgeStyle;rounded=0;orthogonalLoop=1;jettySize=auto;html=1;jumpStyle=arc;jumpSize=15;endSize=25;endArrow=diamondThin;endFill=0;exitX=0.79;exitY=1.016;exitDx=0;exitDy=0;exitPerimeter=0;" parent="EUOa7AyO2jyz6yHNA7Qs-45" source="EUOa7AyO2jyz6yHNA7Qs-281" target="EUOa7AyO2jyz6yHNA7Qs-93" edge="1">
          <mxGeometry relative="1" as="geometry" />
        </mxCell>
        <mxCell id="EUOa7AyO2jyz6yHNA7Qs-68" value="Package 2" style="shape=folder;fontStyle=1;tabWidth=110;tabHeight=30;tabPosition=left;html=1;boundedLbl=1;labelInHeader=1;container=1;collapsible=0;recursiveResize=0;whiteSpace=wrap;fontColor=#000000;strokeColor=#000000;opacity=50;" parent="1" vertex="1">
          <mxGeometry x="-690" y="1150" width="1400" height="1260" as="geometry" />
        </mxCell>
        <mxCell id="EUOa7AyO2jyz6yHNA7Qs-130" value="&amp;lt;&amp;lt;enum&amp;gt;&amp;gt;&lt;div&gt;Status&lt;/div&gt;" style="swimlane;fontStyle=1;align=center;verticalAlign=top;childLayout=stackLayout;horizontal=1;startSize=40;horizontalStack=0;resizeParent=1;resizeParentMax=0;resizeLast=0;collapsible=1;marginBottom=0;whiteSpace=wrap;html=1;fontColor=#ffffff;fillColor=#60a917;strokeColor=#2D7600;" parent="EUOa7AyO2jyz6yHNA7Qs-68" vertex="1">
          <mxGeometry x="560" y="90" width="130" height="126" as="geometry">
            <mxRectangle x="800" y="1040" width="140" height="30" as="alternateBounds" />
          </mxGeometry>
        </mxCell>
        <mxCell id="EUOa7AyO2jyz6yHNA7Qs-131" value="UPCOMING" style="text;strokeColor=none;fillColor=none;align=left;verticalAlign=top;spacingLeft=4;spacingRight=4;overflow=hidden;rotatable=0;points=[[0,0.5],[1,0.5]];portConstraint=eastwest;whiteSpace=wrap;html=1;" parent="EUOa7AyO2jyz6yHNA7Qs-130" vertex="1">
          <mxGeometry y="40" width="130" height="26" as="geometry" />
        </mxCell>
        <mxCell id="JJXJcLjme7lauxdf09mU-1" value="ONGOING" style="text;strokeColor=none;fillColor=none;align=left;verticalAlign=top;spacingLeft=4;spacingRight=4;overflow=hidden;rotatable=0;points=[[0,0.5],[1,0.5]];portConstraint=eastwest;whiteSpace=wrap;html=1;" parent="EUOa7AyO2jyz6yHNA7Qs-130" vertex="1">
          <mxGeometry y="66" width="130" height="26" as="geometry" />
        </mxCell>
        <mxCell id="JJXJcLjme7lauxdf09mU-2" value="OVER" style="text;strokeColor=none;fillColor=none;align=left;verticalAlign=top;spacingLeft=4;spacingRight=4;overflow=hidden;rotatable=0;points=[[0,0.5],[1,0.5]];portConstraint=eastwest;whiteSpace=wrap;html=1;" parent="EUOa7AyO2jyz6yHNA7Qs-130" vertex="1">
          <mxGeometry y="92" width="130" height="26" as="geometry" />
        </mxCell>
        <mxCell id="EUOa7AyO2jyz6yHNA7Qs-132" value="" style="line;strokeWidth=1;fillColor=none;align=left;verticalAlign=middle;spacingTop=-1;spacingLeft=3;spacingRight=3;rotatable=0;labelPosition=right;points=[];portConstraint=eastwest;strokeColor=inherit;" parent="EUOa7AyO2jyz6yHNA7Qs-130" vertex="1">
          <mxGeometry y="118" width="130" height="8" as="geometry" />
        </mxCell>
        <mxCell id="ViaeIdblsGb_LhoVTpIe-34" value="Event" style="swimlane;fontStyle=1;align=center;verticalAlign=top;childLayout=stackLayout;horizontal=1;startSize=26;horizontalStack=0;resizeParent=1;resizeParentMax=0;resizeLast=0;collapsible=1;marginBottom=0;whiteSpace=wrap;html=1;fontColor=#ffffff;fillColor=#60a917;strokeColor=#2D7600;" parent="EUOa7AyO2jyz6yHNA7Qs-68" vertex="1">
          <mxGeometry x="120" y="200" width="400" height="788" as="geometry">
            <mxRectangle x="120" y="200" width="70" height="30" as="alternateBounds" />
          </mxGeometry>
        </mxCell>
        <mxCell id="ViaeIdblsGb_LhoVTpIe-35" value="-ORGANIZER: Organizer" style="text;strokeColor=none;fillColor=none;align=left;verticalAlign=top;spacingLeft=4;spacingRight=4;overflow=hidden;rotatable=0;points=[[0,0.5],[1,0.5]];portConstraint=eastwest;whiteSpace=wrap;html=1;" parent="ViaeIdblsGb_LhoVTpIe-34" vertex="1">
          <mxGeometry y="26" width="400" height="26" as="geometry" />
        </mxCell>
        <mxCell id="ViaeIdblsGb_LhoVTpIe-36" value="-EVENT_TITLE: String&amp;nbsp;" style="text;strokeColor=none;fillColor=none;align=left;verticalAlign=top;spacingLeft=4;spacingRight=4;overflow=hidden;rotatable=0;points=[[0,0.5],[1,0.5]];portConstraint=eastwest;whiteSpace=wrap;html=1;" parent="ViaeIdblsGb_LhoVTpIe-34" vertex="1">
          <mxGeometry y="52" width="400" height="26" as="geometry" />
        </mxCell>
        <mxCell id="ViaeIdblsGb_LhoVTpIe-37" value="-ID: int&amp;nbsp;" style="text;strokeColor=none;fillColor=none;align=left;verticalAlign=top;spacingLeft=4;spacingRight=4;overflow=hidden;rotatable=0;points=[[0,0.5],[1,0.5]];portConstraint=eastwest;whiteSpace=wrap;html=1;" parent="ViaeIdblsGb_LhoVTpIe-34" vertex="1">
          <mxGeometry y="78" width="400" height="26" as="geometry" />
        </mxCell>
        <mxCell id="ViaeIdblsGb_LhoVTpIe-38" value="-ROOM_ID: int" style="text;strokeColor=none;fillColor=none;align=left;verticalAlign=top;spacingLeft=4;spacingRight=4;overflow=hidden;rotatable=0;points=[[0,0.5],[1,0.5]];portConstraint=eastwest;whiteSpace=wrap;html=1;" parent="ViaeIdblsGb_LhoVTpIe-34" vertex="1">
          <mxGeometry y="104" width="400" height="26" as="geometry" />
        </mxCell>
        <mxCell id="ViaeIdblsGb_LhoVTpIe-39" value="-category: Category" style="text;strokeColor=none;fillColor=none;align=left;verticalAlign=top;spacingLeft=4;spacingRight=4;overflow=hidden;rotatable=0;points=[[0,0.5],[1,0.5]];portConstraint=eastwest;whiteSpace=wrap;html=1;" parent="ViaeIdblsGb_LhoVTpIe-34" vertex="1">
          <mxGeometry y="130" width="400" height="26" as="geometry" />
        </mxCell>
        <mxCell id="ViaeIdblsGb_LhoVTpIe-40" value="-maxNumOfAttendee: int" style="text;strokeColor=none;fillColor=none;align=left;verticalAlign=top;spacingLeft=4;spacingRight=4;overflow=hidden;rotatable=0;points=[[0,0.5],[1,0.5]];portConstraint=eastwest;whiteSpace=wrap;html=1;" parent="ViaeIdblsGb_LhoVTpIe-34" vertex="1">
          <mxGeometry y="156" width="400" height="26" as="geometry" />
        </mxCell>
        <mxCell id="ViaeIdblsGb_LhoVTpIe-41" value="-price: double" style="text;strokeColor=none;fillColor=none;align=left;verticalAlign=top;spacingLeft=4;spacingRight=4;overflow=hidden;rotatable=0;points=[[0,0.5],[1,0.5]];portConstraint=eastwest;whiteSpace=wrap;html=1;" parent="ViaeIdblsGb_LhoVTpIe-34" vertex="1">
          <mxGeometry y="182" width="400" height="26" as="geometry" />
        </mxCell>
        <mxCell id="ViaeIdblsGb_LhoVTpIe-42" value="-date: MyDate" style="text;strokeColor=none;fillColor=none;align=left;verticalAlign=top;spacingLeft=4;spacingRight=4;overflow=hidden;rotatable=0;points=[[0,0.5],[1,0.5]];portConstraint=eastwest;whiteSpace=wrap;html=1;" parent="ViaeIdblsGb_LhoVTpIe-34" vertex="1">
          <mxGeometry y="208" width="400" height="26" as="geometry" />
        </mxCell>
        <mxCell id="ViaeIdblsGb_LhoVTpIe-43" value="-timeRange: TimeRange" style="text;strokeColor=none;fillColor=none;align=left;verticalAlign=top;spacingLeft=4;spacingRight=4;overflow=hidden;rotatable=0;points=[[0,0.5],[1,0.5]];portConstraint=eastwest;whiteSpace=wrap;html=1;" parent="ViaeIdblsGb_LhoVTpIe-34" vertex="1">
          <mxGeometry y="234" width="400" height="26" as="geometry" />
        </mxCell>
        <mxCell id="ViaeIdblsGb_LhoVTpIe-44" value="-STATUS: Status" style="text;strokeColor=none;fillColor=none;align=left;verticalAlign=top;spacingLeft=4;spacingRight=4;overflow=hidden;rotatable=0;points=[[0,0.5],[1,0.5]];portConstraint=eastwest;whiteSpace=wrap;html=1;" parent="ViaeIdblsGb_LhoVTpIe-34" vertex="1">
          <mxGeometry y="260" width="400" height="26" as="geometry" />
        </mxCell>
        <mxCell id="ViaeIdblsGb_LhoVTpIe-45" value="" style="line;strokeWidth=1;fillColor=none;align=left;verticalAlign=middle;spacingTop=-1;spacingLeft=3;spacingRight=3;rotatable=0;labelPosition=right;points=[];portConstraint=eastwest;strokeColor=inherit;" parent="ViaeIdblsGb_LhoVTpIe-34" vertex="1">
          <mxGeometry y="286" width="400" height="8" as="geometry" />
        </mxCell>
        <mxCell id="ViaeIdblsGb_LhoVTpIe-46" value="+Event(Organizer,String,int,int,double,int,Category,MyDate,TimeRange)" style="text;strokeColor=none;fillColor=none;align=left;verticalAlign=top;spacingLeft=4;spacingRight=4;overflow=hidden;rotatable=0;points=[[0,0.5],[1,0.5]];portConstraint=eastwest;whiteSpace=wrap;html=1;" parent="ViaeIdblsGb_LhoVTpIe-34" vertex="1">
          <mxGeometry y="294" width="400" height="26" as="geometry" />
        </mxCell>
        <mxCell id="ViaeIdblsGb_LhoVTpIe-47" value="+&lt;u&gt;FindEvent(ArrayList&amp;lt;Event&amp;gt;,int): Event&lt;/u&gt;" style="text;strokeColor=none;fillColor=none;align=left;verticalAlign=top;spacingLeft=4;spacingRight=4;overflow=hidden;rotatable=0;points=[[0,0.5],[1,0.5]];portConstraint=eastwest;whiteSpace=wrap;html=1;" parent="ViaeIdblsGb_LhoVTpIe-34" vertex="1">
          <mxGeometry y="320" width="400" height="26" as="geometry" />
        </mxCell>
        <mxCell id="ViaeIdblsGb_LhoVTpIe-48" value="+EditPrice(double): void" style="text;strokeColor=none;fillColor=none;align=left;verticalAlign=top;spacingLeft=4;spacingRight=4;overflow=hidden;rotatable=0;points=[[0,0.5],[1,0.5]];portConstraint=eastwest;whiteSpace=wrap;html=1;" parent="ViaeIdblsGb_LhoVTpIe-34" vertex="1">
          <mxGeometry y="346" width="400" height="26" as="geometry" />
        </mxCell>
        <mxCell id="ViaeIdblsGb_LhoVTpIe-49" value="+ChangeRoom(int): void" style="text;strokeColor=none;fillColor=none;align=left;verticalAlign=top;spacingLeft=4;spacingRight=4;overflow=hidden;rotatable=0;points=[[0,0.5],[1,0.5]];portConstraint=eastwest;whiteSpace=wrap;html=1;" parent="ViaeIdblsGb_LhoVTpIe-34" vertex="1">
          <mxGeometry y="372" width="400" height="26" as="geometry" />
        </mxCell>
        <mxCell id="ViaeIdblsGb_LhoVTpIe-50" value="+EditCategory(Category): void" style="text;strokeColor=none;fillColor=none;align=left;verticalAlign=top;spacingLeft=4;spacingRight=4;overflow=hidden;rotatable=0;points=[[0,0.5],[1,0.5]];portConstraint=eastwest;whiteSpace=wrap;html=1;" parent="ViaeIdblsGb_LhoVTpIe-34" vertex="1">
          <mxGeometry y="398" width="400" height="26" as="geometry" />
        </mxCell>
        <mxCell id="ViaeIdblsGb_LhoVTpIe-51" value="+EditDate(MyDate): void" style="text;strokeColor=none;fillColor=none;align=left;verticalAlign=top;spacingLeft=4;spacingRight=4;overflow=hidden;rotatable=0;points=[[0,0.5],[1,0.5]];portConstraint=eastwest;whiteSpace=wrap;html=1;" parent="ViaeIdblsGb_LhoVTpIe-34" vertex="1">
          <mxGeometry y="424" width="400" height="26" as="geometry" />
        </mxCell>
        <mxCell id="ViaeIdblsGb_LhoVTpIe-52" value="+EditTimeRange(TimeRange): void" style="text;strokeColor=none;fillColor=none;align=left;verticalAlign=top;spacingLeft=4;spacingRight=4;overflow=hidden;rotatable=0;points=[[0,0.5],[1,0.5]];portConstraint=eastwest;whiteSpace=wrap;html=1;" parent="ViaeIdblsGb_LhoVTpIe-34" vertex="1">
          <mxGeometry y="450" width="400" height="26" as="geometry" />
        </mxCell>
        <mxCell id="ViaeIdblsGb_LhoVTpIe-53" value="+EditMaxNumOfAttendees(int): void" style="text;strokeColor=none;fillColor=none;align=left;verticalAlign=top;spacingLeft=4;spacingRight=4;overflow=hidden;rotatable=0;points=[[0,0.5],[1,0.5]];portConstraint=eastwest;whiteSpace=wrap;html=1;" parent="ViaeIdblsGb_LhoVTpIe-34" vertex="1">
          <mxGeometry y="476" width="400" height="26" as="geometry" />
        </mxCell>
        <mxCell id="ViaeIdblsGb_LhoVTpIe-54" value="+GetStatus(): Status" style="text;strokeColor=none;fillColor=none;align=left;verticalAlign=top;spacingLeft=4;spacingRight=4;overflow=hidden;rotatable=0;points=[[0,0.5],[1,0.5]];portConstraint=eastwest;whiteSpace=wrap;html=1;" parent="ViaeIdblsGb_LhoVTpIe-34" vertex="1">
          <mxGeometry y="502" width="400" height="26" as="geometry" />
        </mxCell>
        <mxCell id="ViaeIdblsGb_LhoVTpIe-55" value="+GetPrice(): double" style="text;strokeColor=none;fillColor=none;align=left;verticalAlign=top;spacingLeft=4;spacingRight=4;overflow=hidden;rotatable=0;points=[[0,0.5],[1,0.5]];portConstraint=eastwest;whiteSpace=wrap;html=1;" parent="ViaeIdblsGb_LhoVTpIe-34" vertex="1">
          <mxGeometry y="528" width="400" height="26" as="geometry" />
        </mxCell>
        <mxCell id="ViaeIdblsGb_LhoVTpIe-56" value="+GetID(): int" style="text;strokeColor=none;fillColor=none;align=left;verticalAlign=top;spacingLeft=4;spacingRight=4;overflow=hidden;rotatable=0;points=[[0,0.5],[1,0.5]];portConstraint=eastwest;whiteSpace=wrap;html=1;" parent="ViaeIdblsGb_LhoVTpIe-34" vertex="1">
          <mxGeometry y="554" width="400" height="26" as="geometry" />
        </mxCell>
        <mxCell id="ViaeIdblsGb_LhoVTpIe-57" value="+GetOrganizer(): Organizer" style="text;strokeColor=none;fillColor=none;align=left;verticalAlign=top;spacingLeft=4;spacingRight=4;overflow=hidden;rotatable=0;points=[[0,0.5],[1,0.5]];portConstraint=eastwest;whiteSpace=wrap;html=1;" parent="ViaeIdblsGb_LhoVTpIe-34" vertex="1">
          <mxGeometry y="580" width="400" height="26" as="geometry" />
        </mxCell>
        <mxCell id="ViaeIdblsGb_LhoVTpIe-58" value="+GetTimeRange(): TimeRange" style="text;strokeColor=none;fillColor=none;align=left;verticalAlign=top;spacingLeft=4;spacingRight=4;overflow=hidden;rotatable=0;points=[[0,0.5],[1,0.5]];portConstraint=eastwest;whiteSpace=wrap;html=1;" parent="ViaeIdblsGb_LhoVTpIe-34" vertex="1">
          <mxGeometry y="606" width="400" height="26" as="geometry" />
        </mxCell>
        <mxCell id="ViaeIdblsGb_LhoVTpIe-59" value="+GetDate(): MyDate" style="text;strokeColor=none;fillColor=none;align=left;verticalAlign=top;spacingLeft=4;spacingRight=4;overflow=hidden;rotatable=0;points=[[0,0.5],[1,0.5]];portConstraint=eastwest;whiteSpace=wrap;html=1;" parent="ViaeIdblsGb_LhoVTpIe-34" vertex="1">
          <mxGeometry y="632" width="400" height="26" as="geometry" />
        </mxCell>
        <mxCell id="ViaeIdblsGb_LhoVTpIe-60" value="+GetRoomID(): int" style="text;strokeColor=none;fillColor=none;align=left;verticalAlign=top;spacingLeft=4;spacingRight=4;overflow=hidden;rotatable=0;points=[[0,0.5],[1,0.5]];portConstraint=eastwest;whiteSpace=wrap;html=1;" parent="ViaeIdblsGb_LhoVTpIe-34" vertex="1">
          <mxGeometry y="658" width="400" height="26" as="geometry" />
        </mxCell>
        <mxCell id="ViaeIdblsGb_LhoVTpIe-61" value="+GetEventTitle(): String" style="text;strokeColor=none;fillColor=none;align=left;verticalAlign=top;spacingLeft=4;spacingRight=4;overflow=hidden;rotatable=0;points=[[0,0.5],[1,0.5]];portConstraint=eastwest;whiteSpace=wrap;html=1;" parent="ViaeIdblsGb_LhoVTpIe-34" vertex="1">
          <mxGeometry y="684" width="400" height="26" as="geometry" />
        </mxCell>
        <mxCell id="ViaeIdblsGb_LhoVTpIe-62" value="+GetCategory(): Category" style="text;strokeColor=none;fillColor=none;align=left;verticalAlign=top;spacingLeft=4;spacingRight=4;overflow=hidden;rotatable=0;points=[[0,0.5],[1,0.5]];portConstraint=eastwest;whiteSpace=wrap;html=1;" parent="ViaeIdblsGb_LhoVTpIe-34" vertex="1">
          <mxGeometry y="710" width="400" height="26" as="geometry" />
        </mxCell>
        <mxCell id="ViaeIdblsGb_LhoVTpIe-63" value="+GetMaxNumOfAttendees(): int" style="text;strokeColor=none;fillColor=none;align=left;verticalAlign=top;spacingLeft=4;spacingRight=4;overflow=hidden;rotatable=0;points=[[0,0.5],[1,0.5]];portConstraint=eastwest;whiteSpace=wrap;html=1;" parent="ViaeIdblsGb_LhoVTpIe-34" vertex="1">
          <mxGeometry y="736" width="400" height="26" as="geometry" />
        </mxCell>
        <mxCell id="ViaeIdblsGb_LhoVTpIe-64" value="+toString(): String" style="text;strokeColor=none;fillColor=none;align=left;verticalAlign=top;spacingLeft=4;spacingRight=4;overflow=hidden;rotatable=0;points=[[0,0.5],[1,0.5]];portConstraint=eastwest;whiteSpace=wrap;html=1;" parent="ViaeIdblsGb_LhoVTpIe-34" vertex="1">
          <mxGeometry y="762" width="400" height="26" as="geometry" />
        </mxCell>
        <mxCell id="ViaeIdblsGb_LhoVTpIe-65" value="Organizer" style="swimlane;fontStyle=1;align=center;verticalAlign=top;childLayout=stackLayout;horizontal=1;startSize=26;horizontalStack=0;resizeParent=1;resizeParentMax=0;resizeLast=0;collapsible=1;marginBottom=0;whiteSpace=wrap;html=1;fontColor=#ffffff;fillColor=#60a917;strokeColor=#2D7600;" parent="EUOa7AyO2jyz6yHNA7Qs-68" vertex="1">
          <mxGeometry x="850" y="120" width="430" height="398" as="geometry">
            <mxRectangle x="850" y="120" width="90" height="30" as="alternateBounds" />
          </mxGeometry>
        </mxCell>
        <mxCell id="ViaeIdblsGb_LhoVTpIe-66" value="-WALLET: Wallet" style="text;strokeColor=none;fillColor=none;align=left;verticalAlign=top;spacingLeft=4;spacingRight=4;overflow=hidden;rotatable=0;points=[[0,0.5],[1,0.5]];portConstraint=eastwest;whiteSpace=wrap;html=1;fontColor=#000000;" parent="ViaeIdblsGb_LhoVTpIe-65" vertex="1">
          <mxGeometry y="26" width="430" height="26" as="geometry" />
        </mxCell>
        <mxCell id="ViaeIdblsGb_LhoVTpIe-67" value="-ticketsSold: Map&amp;lt;Integer,Integer&amp;gt;" style="text;strokeColor=none;fillColor=none;align=left;verticalAlign=top;spacingLeft=4;spacingRight=4;overflow=hidden;rotatable=0;points=[[0,0.5],[1,0.5]];portConstraint=eastwest;whiteSpace=wrap;html=1;fontColor=#000000;" parent="ViaeIdblsGb_LhoVTpIe-65" vertex="1">
          <mxGeometry y="52" width="430" height="26" as="geometry" />
        </mxCell>
        <mxCell id="ViaeIdblsGb_LhoVTpIe-68" value="" style="line;strokeWidth=1;fillColor=none;align=left;verticalAlign=middle;spacingTop=-1;spacingLeft=3;spacingRight=3;rotatable=0;labelPosition=right;points=[];portConstraint=eastwest;strokeColor=inherit;fontColor=#000000;" parent="ViaeIdblsGb_LhoVTpIe-65" vertex="1">
          <mxGeometry y="78" width="430" height="8" as="geometry" />
        </mxCell>
        <mxCell id="ViaeIdblsGb_LhoVTpIe-69" value="+Organizer(String,String,String,MyDate,Gender,Wallet,Map&amp;lt;Integer,Integer&amp;gt;)" style="text;strokeColor=none;fillColor=none;align=left;verticalAlign=top;spacingLeft=4;spacingRight=4;overflow=hidden;rotatable=0;points=[[0,0.5],[1,0.5]];portConstraint=eastwest;whiteSpace=wrap;html=1;fontColor=#000000;" parent="ViaeIdblsGb_LhoVTpIe-65" vertex="1">
          <mxGeometry y="86" width="430" height="26" as="geometry" />
        </mxCell>
        <mxCell id="ViaeIdblsGb_LhoVTpIe-70" value="+&lt;u&gt;RegisterOrganizer(String,String,String,MyDate,Gender,double): void&lt;/u&gt;" style="text;strokeColor=none;fillColor=none;align=left;verticalAlign=top;spacingLeft=4;spacingRight=4;overflow=hidden;rotatable=0;points=[[0,0.5],[1,0.5]];portConstraint=eastwest;whiteSpace=wrap;html=1;fontColor=#000000;" parent="ViaeIdblsGb_LhoVTpIe-65" vertex="1">
          <mxGeometry y="112" width="430" height="26" as="geometry" />
        </mxCell>
        <mxCell id="ViaeIdblsGb_LhoVTpIe-71" value="+Find&lt;u&gt;Organizer(ArrayList&amp;lt;Organizer&amp;gt;,String): Organizer&lt;/u&gt;" style="text;strokeColor=none;fillColor=none;align=left;verticalAlign=top;spacingLeft=4;spacingRight=4;overflow=hidden;rotatable=0;points=[[0,0.5],[1,0.5]];portConstraint=eastwest;whiteSpace=wrap;html=1;fontColor=#000000;" parent="ViaeIdblsGb_LhoVTpIe-65" vertex="1">
          <mxGeometry y="138" width="430" height="26" as="geometry" />
        </mxCell>
        <mxCell id="ViaeIdblsGb_LhoVTpIe-72" value="+CreateEvent(double,Room,String,Category,MyDate,TimeRange,int): void" style="text;strokeColor=none;fillColor=none;align=left;verticalAlign=top;spacingLeft=4;spacingRight=4;overflow=hidden;rotatable=0;points=[[0,0.5],[1,0.5]];portConstraint=eastwest;whiteSpace=wrap;html=1;fontColor=#000000;" parent="ViaeIdblsGb_LhoVTpIe-65" vertex="1">
          <mxGeometry y="164" width="430" height="26" as="geometry" />
        </mxCell>
        <mxCell id="ViaeIdblsGb_LhoVTpIe-73" value="+EditEventPrice(Event,double): void" style="text;strokeColor=none;fillColor=none;align=left;verticalAlign=top;spacingLeft=4;spacingRight=4;overflow=hidden;rotatable=0;points=[[0,0.5],[1,0.5]];portConstraint=eastwest;whiteSpace=wrap;html=1;fontColor=#000000;" parent="ViaeIdblsGb_LhoVTpIe-65" vertex="1">
          <mxGeometry y="190" width="430" height="26" as="geometry" />
        </mxCell>
        <mxCell id="ViaeIdblsGb_LhoVTpIe-74" value="+EditEventRoom(Event,int): void" style="text;strokeColor=none;fillColor=none;align=left;verticalAlign=top;spacingLeft=4;spacingRight=4;overflow=hidden;rotatable=0;points=[[0,0.5],[1,0.5]];portConstraint=eastwest;whiteSpace=wrap;html=1;fontColor=#000000;" parent="ViaeIdblsGb_LhoVTpIe-65" vertex="1">
          <mxGeometry y="216" width="430" height="26" as="geometry" />
        </mxCell>
        <mxCell id="ViaeIdblsGb_LhoVTpIe-75" value="+EditEventCategory(Event,Category): void" style="text;strokeColor=none;fillColor=none;align=left;verticalAlign=top;spacingLeft=4;spacingRight=4;overflow=hidden;rotatable=0;points=[[0,0.5],[1,0.5]];portConstraint=eastwest;whiteSpace=wrap;html=1;fontColor=#000000;" parent="ViaeIdblsGb_LhoVTpIe-65" vertex="1">
          <mxGeometry y="242" width="430" height="26" as="geometry" />
        </mxCell>
        <mxCell id="ViaeIdblsGb_LhoVTpIe-76" value="+EditEventDate(Event,MyDate): void" style="text;strokeColor=none;fillColor=none;align=left;verticalAlign=top;spacingLeft=4;spacingRight=4;overflow=hidden;rotatable=0;points=[[0,0.5],[1,0.5]];portConstraint=eastwest;whiteSpace=wrap;html=1;fontColor=#000000;" parent="ViaeIdblsGb_LhoVTpIe-65" vertex="1">
          <mxGeometry y="268" width="430" height="26" as="geometry" />
        </mxCell>
        <mxCell id="ViaeIdblsGb_LhoVTpIe-77" value="+CancelEvent(Event): void" style="text;strokeColor=none;fillColor=none;align=left;verticalAlign=top;spacingLeft=4;spacingRight=4;overflow=hidden;rotatable=0;points=[[0,0.5],[1,0.5]];portConstraint=eastwest;whiteSpace=wrap;html=1;fontColor=#000000;" parent="ViaeIdblsGb_LhoVTpIe-65" vertex="1">
          <mxGeometry y="294" width="430" height="26" as="geometry" />
        </mxCell>
        <mxCell id="ViaeIdblsGb_LhoVTpIe-78" value="+GetWallet(): Wallet" style="text;strokeColor=none;fillColor=none;align=left;verticalAlign=top;spacingLeft=4;spacingRight=4;overflow=hidden;rotatable=0;points=[[0,0.5],[1,0.5]];portConstraint=eastwest;whiteSpace=wrap;html=1;fontColor=#000000;" parent="ViaeIdblsGb_LhoVTpIe-65" vertex="1">
          <mxGeometry y="320" width="430" height="26" as="geometry" />
        </mxCell>
        <mxCell id="ViaeIdblsGb_LhoVTpIe-79" value="+GetTicketsSold(): Map&amp;lt;Integer,Integer&amp;gt;" style="text;strokeColor=none;fillColor=none;align=left;verticalAlign=top;spacingLeft=4;spacingRight=4;overflow=hidden;rotatable=0;points=[[0,0.5],[1,0.5]];portConstraint=eastwest;whiteSpace=wrap;html=1;fontColor=#000000;" parent="ViaeIdblsGb_LhoVTpIe-65" vertex="1">
          <mxGeometry y="346" width="430" height="26" as="geometry" />
        </mxCell>
        <mxCell id="ViaeIdblsGb_LhoVTpIe-80" value="+toString(): Sring" style="text;strokeColor=none;fillColor=none;align=left;verticalAlign=top;spacingLeft=4;spacingRight=4;overflow=hidden;rotatable=0;points=[[0,0.5],[1,0.5]];portConstraint=eastwest;whiteSpace=wrap;html=1;fontColor=#000000;" parent="ViaeIdblsGb_LhoVTpIe-65" vertex="1">
          <mxGeometry y="372" width="430" height="26" as="geometry" />
        </mxCell>
        <mxCell id="vqxXQO5X_f1XpehPMIfq-25" style="edgeStyle=orthogonalEdgeStyle;rounded=0;orthogonalLoop=1;jettySize=auto;html=1;exitX=1;exitY=0.5;exitDx=0;exitDy=0;entryX=0;entryY=0.5;entryDx=0;entryDy=0;endArrow=diamondThin;endFill=0;startSize=7;endSize=25;" parent="EUOa7AyO2jyz6yHNA7Qs-68" source="ViaeIdblsGb_LhoVTpIe-42" target="ViaeIdblsGb_LhoVTpIe-75" edge="1">
          <mxGeometry relative="1" as="geometry" />
        </mxCell>
        <mxCell id="vqxXQO5X_f1XpehPMIfq-27" style="edgeStyle=orthogonalEdgeStyle;rounded=0;orthogonalLoop=1;jettySize=auto;html=1;exitX=0.5;exitY=1;exitDx=0;exitDy=0;entryX=1;entryY=0.5;entryDx=0;entryDy=0;endArrow=diamondThin;endFill=1;strokeWidth=1;endSize=25;" parent="EUOa7AyO2jyz6yHNA7Qs-68" source="EUOa7AyO2jyz6yHNA7Qs-130" target="ViaeIdblsGb_LhoVTpIe-35" edge="1">
          <mxGeometry relative="1" as="geometry" />
        </mxCell>
        <mxCell id="vqxXQO5X_f1XpehPMIfq-23" style="edgeStyle=orthogonalEdgeStyle;rounded=0;orthogonalLoop=1;jettySize=auto;html=1;endSize=25;endArrow=diamondThin;endFill=1;fontColor=#000000;exitX=0.74;exitY=1;exitDx=0;exitDy=0;exitPerimeter=0;" parent="1" source="ViaeIdblsGb_LhoVTpIe-33" target="ViaeIdblsGb_LhoVTpIe-65" edge="1">
          <mxGeometry relative="1" as="geometry">
            <Array as="points">
              <mxPoint x="-205" y="830" />
              <mxPoint x="200" y="830" />
            </Array>
          </mxGeometry>
        </mxCell>
        <mxCell id="vqxXQO5X_f1XpehPMIfq-18" style="edgeStyle=orthogonalEdgeStyle;rounded=0;orthogonalLoop=1;jettySize=auto;html=1;endSize=25;endArrow=diamondThin;endFill=0;entryX=0.965;entryY=0.93;entryDx=0;entryDy=0;entryPerimeter=0;fontColor=#000000;exitX=0;exitY=0.5;exitDx=0;exitDy=0;" parent="1" source="ViaeIdblsGb_LhoVTpIe-17" target="JJXJcLjme7lauxdf09mU-10" edge="1">
          <mxGeometry relative="1" as="geometry">
            <mxPoint x="730" y="168" as="targetPoint" />
            <mxPoint x="1016" y="1360.9999999999995" as="sourcePoint" />
            <Array as="points">
              <mxPoint x="1020" y="1362" />
              <mxPoint x="850" y="1361" />
              <mxPoint x="850" y="390" />
              <mxPoint x="590" y="390" />
            </Array>
          </mxGeometry>
        </mxCell>
        <mxCell id="vqxXQO5X_f1XpehPMIfq-26" style="edgeStyle=orthogonalEdgeStyle;rounded=0;orthogonalLoop=1;jettySize=auto;html=1;exitX=0;exitY=0.5;exitDx=0;exitDy=0;entryX=1;entryY=0.5;entryDx=0;entryDy=0;endArrow=diamondThin;endFill=0;endSize=25;" parent="1" source="ViaeIdblsGb_LhoVTpIe-23" target="ViaeIdblsGb_LhoVTpIe-58" edge="1">
          <mxGeometry relative="1" as="geometry">
            <Array as="points">
              <mxPoint x="780" y="1513" />
              <mxPoint x="780" y="1979" />
            </Array>
          </mxGeometry>
        </mxCell>
        <mxCell id="vqxXQO5X_f1XpehPMIfq-15" style="edgeStyle=orthogonalEdgeStyle;rounded=0;orthogonalLoop=1;jettySize=auto;html=1;exitX=0.819;exitY=-0.005;exitDx=0;exitDy=0;exitPerimeter=0;entryX=0.767;entryY=1.021;entryDx=0;entryDy=0;entryPerimeter=0;endArrow=block;endFill=0;strokeWidth=1;endSize=15;fontColor=#000000;" parent="1" source="ViaeIdblsGb_LhoVTpIe-65" target="JJXJcLjme7lauxdf09mU-10" edge="1">
          <mxGeometry relative="1" as="geometry">
            <mxPoint x="502.05999999999995" y="1226.5900000000004" as="sourcePoint" />
            <mxPoint x="674.7599999999998" y="167.9980000000001" as="targetPoint" />
            <Array as="points">
              <mxPoint x="502" y="1091" />
              <mxPoint x="675" y="1091" />
              <mxPoint x="675" y="420" />
              <mxPoint x="535" y="420" />
            </Array>
          </mxGeometry>
        </mxCell>
        <mxCell id="vqxXQO5X_f1XpehPMIfq-28" style="edgeStyle=orthogonalEdgeStyle;rounded=0;orthogonalLoop=1;jettySize=auto;html=1;exitX=0;exitY=0.5;exitDx=0;exitDy=0;entryX=0.5;entryY=0;entryDx=0;entryDy=0;jumpStyle=arc;jumpSize=15;endSize=25;endArrow=diamondThin;endFill=0;" parent="1" source="EUOa7AyO2jyz6yHNA7Qs-300" target="ViaeIdblsGb_LhoVTpIe-34" edge="1">
          <mxGeometry relative="1" as="geometry">
            <mxPoint x="-310" y="905.7142857142858" as="targetPoint" />
          </mxGeometry>
        </mxCell>
        <mxCell id="vqxXQO5X_f1XpehPMIfq-21" style="edgeStyle=orthogonalEdgeStyle;rounded=0;orthogonalLoop=1;jettySize=auto;html=1;exitX=0;exitY=0;exitDx=0;exitDy=0;endArrow=diamondThin;endFill=0;endSize=25;jumpStyle=arc;jumpSize=15;fontColor=#000000;entryX=1;entryY=0.329;entryDx=0;entryDy=0;entryPerimeter=0;" parent="1" source="EUOa7AyO2jyz6yHNA7Qs-74" target="JJXJcLjme7lauxdf09mU-19" edge="1">
          <mxGeometry relative="1" as="geometry">
            <mxPoint x="370" y="690" as="targetPoint" />
            <mxPoint x="920.0000000000005" y="852.8600000000001" as="sourcePoint" />
            <Array as="points">
              <mxPoint x="910" y="780" />
              <mxPoint x="500" y="780" />
            </Array>
          </mxGeometry>
        </mxCell>
        <mxCell id="vqxXQO5X_f1XpehPMIfq-32" style="edgeStyle=orthogonalEdgeStyle;rounded=0;orthogonalLoop=1;jettySize=auto;html=1;exitX=1;exitY=0.5;exitDx=0;exitDy=0;endSize=25;endArrow=diamondThin;endFill=0;" parent="1" source="ViaeIdblsGb_LhoVTpIe-61" target="EUOa7AyO2jyz6yHNA7Qs-90" edge="1">
          <mxGeometry relative="1" as="geometry" />
        </mxCell>
        <mxCell id="vqxXQO5X_f1XpehPMIfq-36" style="edgeStyle=orthogonalEdgeStyle;rounded=0;orthogonalLoop=1;jettySize=auto;html=1;entryX=0.723;entryY=1.106;entryDx=0;entryDy=0;entryPerimeter=0;jumpStyle=arc;jumpSize=15;endArrow=none;startFill=0;" parent="1" source="EUOa7AyO2jyz6yHNA7Qs-78" target="JJXJcLjme7lauxdf09mU-21" edge="1">
          <mxGeometry relative="1" as="geometry">
            <mxPoint x="490" y="750" as="targetPoint" />
            <Array as="points">
              <mxPoint x="820" y="2711" />
              <mxPoint x="820" y="890" />
              <mxPoint x="345" y="890" />
            </Array>
          </mxGeometry>
        </mxCell>
        <mxCell id="vqxXQO5X_f1XpehPMIfq-45" style="edgeStyle=orthogonalEdgeStyle;rounded=0;orthogonalLoop=1;jettySize=auto;html=1;exitX=0;exitY=0.5;exitDx=0;exitDy=0;endArrow=none;startFill=0;jumpStyle=arc;jumpSize=15;" parent="1" source="EUOa7AyO2jyz6yHNA7Qs-296" target="JJXJcLjme7lauxdf09mU-10" edge="1">
          <mxGeometry relative="1" as="geometry">
            <Array as="points">
              <mxPoint x="760" y="2683" />
              <mxPoint x="760" y="335" />
            </Array>
          </mxGeometry>
        </mxCell>
        <mxCell id="vqxXQO5X_f1XpehPMIfq-47" style="edgeStyle=orthogonalEdgeStyle;rounded=0;orthogonalLoop=1;jettySize=auto;html=1;exitX=0;exitY=0.5;exitDx=0;exitDy=0;endArrow=none;startFill=0;" parent="1" source="EUOa7AyO2jyz6yHNA7Qs-308" target="ViaeIdblsGb_LhoVTpIe-80" edge="1">
          <mxGeometry relative="1" as="geometry">
            <Array as="points">
              <mxPoint x="540" y="2767" />
            </Array>
          </mxGeometry>
        </mxCell>
        <mxCell id="vqxXQO5X_f1XpehPMIfq-48" style="edgeStyle=orthogonalEdgeStyle;rounded=0;orthogonalLoop=1;jettySize=auto;html=1;exitX=0;exitY=0.5;exitDx=0;exitDy=0;entryX=1;entryY=0.5;entryDx=0;entryDy=0;endArrow=none;startFill=0;" parent="1" source="EUOa7AyO2jyz6yHNA7Qs-308" target="ViaeIdblsGb_LhoVTpIe-63" edge="1">
          <mxGeometry relative="1" as="geometry">
            <Array as="points">
              <mxPoint x="388" y="2767" />
              <mxPoint x="388" y="2110" />
              <mxPoint x="-140" y="2110" />
              <mxPoint x="-140" y="2109" />
            </Array>
          </mxGeometry>
        </mxCell>
        <mxCell id="vqxXQO5X_f1XpehPMIfq-49" style="edgeStyle=orthogonalEdgeStyle;rounded=0;orthogonalLoop=1;jettySize=auto;html=1;exitX=0;exitY=0.5;exitDx=0;exitDy=0;entryX=1;entryY=0.5;entryDx=0;entryDy=0;jumpStyle=arc;jumpSize=15;endSize=25;endArrow=diamondThin;endFill=0;" parent="1" source="JJXJcLjme7lauxdf09mU-57" target="ViaeIdblsGb_LhoVTpIe-50" edge="1">
          <mxGeometry relative="1" as="geometry" />
        </mxCell>
        <mxCell id="vqxXQO5X_f1XpehPMIfq-4" style="edgeStyle=orthogonalEdgeStyle;rounded=0;orthogonalLoop=1;jettySize=auto;html=1;endArrow=block;endFill=0;targetPerimeterSpacing=0;endSize=15;startSize=9;exitX=0.899;exitY=0.014;exitDx=0;exitDy=0;entryX=1.001;entryY=0.148;entryDx=0;entryDy=0;entryPerimeter=0;fontColor=#000000;exitPerimeter=0;" parent="1" source="EUOa7AyO2jyz6yHNA7Qs-70" target="JJXJcLjme7lauxdf09mU-4" edge="1">
          <mxGeometry relative="1" as="geometry">
            <mxPoint x="1511.96" y="848" as="sourcePoint" />
            <mxPoint x="899.9999999999995" y="101.06799999999998" as="targetPoint" />
            <Array as="points">
              <mxPoint x="1508" y="162" />
            </Array>
          </mxGeometry>
        </mxCell>
      </root>
    </mxGraphModel>
  </diagram>
</mxfile>
